<svg width="112" height="158" viewBox="0 0 112 158" fill="none" xmlns="http://www.w3.org/2000/svg">
<path d="M112 132.733V158H0.661417V135.823C20.1365 124.201 37.5905 110.777 53.0236 95.5503C68.5302 80.2505 76.2835 64.3254 76.2835 47.7751C76.2835 41.0815 74.4462 35.6383 70.7717 31.4455C67.1706 27.2528 61.7323 25.1564 54.4567 25.1564C45.1234 25.1564 38.3622 28.3929 34.1732 34.8659C29.9843 41.3389 27.706 49.3198 27.3386 58.8087L0 57.0433C0 47.1867 2.16798 37.8817 6.50394 29.1285C10.8399 20.3752 17.1234 13.3506 25.3543 8.05447C33.5853 2.68482 43.2126 0 54.2362 0C63.8635 0 72.4619 1.91248 80.0315 5.73743C87.6011 9.48883 93.5171 15.0056 97.7795 22.2877C102.115 29.5698 104.283 38.2863 104.283 48.4371C104.283 59.0293 101.234 69.9157 95.1339 81.0964C89.1076 92.2034 81.6115 102.354 72.6457 111.549C63.6798 120.67 55.0079 127.731 46.6299 132.733H112Z" fill="#F2F2F2"/>
</svg>
