<svg width="153" height="22" viewBox="0 0 153 22" fill="none" xmlns="http://www.w3.org/2000/svg">
<g clip-path="url(#clip0_2_323)">
<path fill-rule="evenodd" clip-rule="evenodd" d="M11.5308 20.1794C10.6381 20.9886 9.49743 21.469 8.30716 21.4943C4.48836 21.469 3.62045 18.207 3.62045 13.9081C3.62045 9.60926 4.43876 6.3219 8.25756 6.3219C9.42304 6.3219 10.5389 6.80236 11.3572 7.66213L13.465 11.2024H13.589V6.22075H13.465L11.4812 7.25753C10.5885 6.47362 9.44784 6.01845 8.25756 5.99316C4.58755 6.01845 0.223206 8.87592 0.223206 13.9081C0.223206 18.9403 4.48836 21.8231 8.30716 21.8231C9.52223 21.7978 10.6877 21.3426 11.63 20.5587L13.6882 21.5955H13.8122V16.3863H13.6882L11.5308 20.1794Z" fill="#181818"/>
<path fill-rule="evenodd" clip-rule="evenodd" d="M23.9543 6.01855C20.3587 6.01855 16.1183 9.10361 16.1183 13.9082C16.1183 18.7128 20.3587 21.8232 23.9543 21.8232C27.55 21.8232 31.7903 18.7381 31.7903 13.9082C31.7903 9.07833 27.5252 6.01855 23.9543 6.01855ZM23.9543 21.4944C20.3091 21.4944 19.466 18.4346 19.466 13.9082C19.466 9.40706 20.3091 6.322 23.9543 6.322C27.5995 6.322 28.4427 9.38177 28.4427 13.9082C28.4179 18.4094 27.5995 21.4944 23.9543 21.4944Z" fill="#181818"/>
<path fill-rule="evenodd" clip-rule="evenodd" d="M44.3626 6.29639V6.54926H46.272V16.2343H46.2472L39.4031 6.29639H33.5013V6.54926H35.4355V21.2665H33.5013V21.5194H37.7169V21.2665H35.7827V6.54926H35.8075L46.5448 21.8228H46.644V6.54926H48.5534V6.29639H44.3626Z" fill="#181818"/>
<path fill-rule="evenodd" clip-rule="evenodd" d="M56.8853 6.29639H50.2396V6.54926H52.149V21.2665H50.2396V21.5194H56.8853C60.1833 21.5194 65.8371 20.0527 65.8371 13.8067C65.8371 7.56075 60.2081 6.29639 56.8853 6.29639ZM56.8357 21.2665H55.2238V6.54926H56.8357C60.7537 6.54926 62.5391 9.2803 62.5391 13.9079C62.5391 18.5355 60.7289 21.2665 56.8357 21.2665Z" fill="#181818"/>
<path fill-rule="evenodd" clip-rule="evenodd" d="M78.1615 21.2665H72.5077V13.5033H75.3594C76.3017 14.2619 77.3927 16.4619 77.3927 16.4619H77.5167V10.2412H77.368C77.368 10.2412 76.2769 12.4412 75.3346 13.1998H72.4829V6.54926H77.5415C79.0046 7.53547 80.294 10.3929 80.294 10.3929H80.418V6.29639H67.5234V6.54926H69.4576V21.2665H67.5234V21.5194H80.8396V16.4113H80.7156C80.7404 16.4113 79.4509 19.7998 78.1615 21.2665Z" fill="#181818"/>
<path fill-rule="evenodd" clip-rule="evenodd" d="M77.7647 0.126465L73.0036 4.12187L73.0532 4.19773L77.9135 3.0598L77.5167 1.97244L77.8391 0.202327L77.7647 0.126465Z" fill="#181818"/>
<path fill-rule="evenodd" clip-rule="evenodd" d="M104.273 6.29639V6.54926H106.207V16.2343H106.158L99.3136 6.29639H93.4119V6.54926H95.3461V21.2665H93.4119V21.5194H97.6274V21.2665H95.6932V6.54926H95.7428L106.455 21.8228H106.554V6.54926H108.489V6.29639H104.273Z" fill="#181818"/>
<path fill-rule="evenodd" clip-rule="evenodd" d="M116.449 5.76562L109.977 21.2668H108.191V21.5196H112.208V21.2668H110.348L112.729 15.5013H117.589L120.119 21.2668H118.184V21.5196H125.202V21.2668H123.417L116.548 5.76562H116.449ZM115.11 9.78631L117.49 15.2231H112.828L115.11 9.78631Z" fill="#181818"/>
<path fill-rule="evenodd" clip-rule="evenodd" d="M133.906 12.5931L130.955 11.5816C129.492 11.0758 128.277 10.3425 128.277 8.90112C128.277 7.25744 129.566 6.34709 131.525 6.34709C132.741 6.34709 133.509 6.67583 134.228 7.35859L136.311 10.8735H136.435V6.01836H136.311L134.328 7.02985C133.534 6.34709 132.542 5.99307 131.501 6.01836C128.649 6.01836 126.789 7.91491 126.764 10.5701C126.789 12.7195 128.252 13.8321 129.938 14.4643L132.939 15.577C134.526 16.1586 135.617 16.8666 135.617 18.4597C135.617 19.9517 134.625 21.4689 132.021 21.4942C130.806 21.4689 129.418 20.9632 128.599 20.154L126.343 16.3103H126.219L126.318 21.5701H126.442L128.475 20.4574C129.492 21.2666 130.732 21.7471 132.021 21.7724C135.295 21.7724 137.427 19.4207 137.427 16.8413C137.477 14.3632 135.741 13.2253 133.906 12.5931Z" fill="#181818"/>
<path fill-rule="evenodd" clip-rule="evenodd" d="M138.94 6.29639V11.0251H139.064C139.064 11.0251 140.453 8.01593 141.742 6.54926H144.346V21.2665H141.99V21.5194H149.727V21.2665H147.371V6.54926H149.975C151.289 8.01593 152.653 11.0251 152.653 11.0251H152.777V6.29639H138.94Z" fill="#181818"/>
</g>
<defs>
<clipPath id="clip0_2_323">
<rect width="153" height="22" fill="white"/>
</clipPath>
</defs>
</svg>
