<svg width="45" height="25" viewBox="0 0 45 25" fill="none" xmlns="http://www.w3.org/2000/svg">
<g clip-path="url(#clip0_2_455)">
<path d="M22.1758 20.7015C24.12 18.478 25.2656 15.6129 25.2656 12.55C25.2656 5.63182 19.5849 0 12.6084 0C5.68068 0 0 5.63258 0 12.5C0 18.8735 4.78373 24.1106 11.0631 24.9015V20.5038C9.41873 20.2076 7.92381 19.3674 6.82703 18.2803C5.33212 16.7985 4.43517 14.7727 4.43517 12.5C4.43517 10.2765 5.33212 8.20152 6.82703 6.7197C8.32195 5.23712 10.366 4.34848 12.658 4.34848C14.9003 4.34848 16.9932 5.23712 18.4881 6.7197C19.9831 8.20152 20.8808 10.2273 20.8808 12.5C20.8808 14.7235 19.9831 16.7985 18.4881 18.2803C17.3317 19.425 15.8565 20.1995 14.2528 20.5038V25H26.8604V20.7015H22.1758ZM28.4049 20.7015L38.0227 11.3636C38.2721 11.1167 38.6207 10.7712 38.8701 10.4742C39.1691 10.178 39.4681 9.83182 39.6671 9.48636C39.867 9.14015 40.1164 8.74545 40.3154 8.39924C40.5145 8.00379 40.5648 7.65833 40.5648 7.16439C40.5648 6.67045 40.4649 6.225 40.2658 5.8303C40.066 5.43485 39.8174 5.08939 39.5184 4.84242C39.2186 4.5947 38.7709 4.34773 38.372 4.2C37.9236 4.05152 37.4751 3.95303 36.9763 3.95303C35.9298 3.95303 35.0825 4.24849 34.3853 4.84242C33.6875 5.43485 33.2886 6.22576 33.1391 7.26288L28.7535 6.91742C28.8534 5.78106 29.1028 4.74318 29.5513 3.90303C29.9907 3.07632 30.5824 2.33882 31.2956 1.72879C32.0431 1.23561 32.8897 0.740909 33.8865 0.493939C34.8338 0.198485 35.8803 0.0492424 37.0266 0.0492424C38.1722 0.0492424 39.2186 0.197727 40.1659 0.493939C41.1125 0.740909 41.9598 1.23561 42.7073 1.77879C43.3556 2.37197 43.9536 3.11212 44.3517 3.95303C44.7506 4.84242 45 5.87955 45 7.06515C45 8.64621 44.6507 9.93106 43.9032 11.0674C43.1319 12.2499 42.2109 13.3292 41.1628 14.2788L33.9864 20.7015H45.0496V25H28.4049V20.7015Z" fill="#1F2025"/>
</g>
<defs>
<clipPath id="clip0_2_455">
<rect width="45" height="25" fill="white"/>
</clipPath>
</defs>
</svg>
