<svg width="139" height="28" viewBox="0 0 139 28" fill="none" xmlns="http://www.w3.org/2000/svg">
<g clip-path="url(#clip0_2_366)">
<path d="M38.4902 13.5302L34.2521 3.23368H36.2437L38.6754 9.37946L41.3387 2.9585L43.9788 9.37946L46.3874 3.23368H48.3096L44.0715 13.5302L41.2692 6.9028L38.4902 13.5302Z" fill="#1316A8"/>
<path d="M57.4342 13.1402H55.4888L54.4698 11.0076H50.2086L49.1896 13.1402H47.2443L52.3392 2.84375L57.4342 13.1402ZM50.9034 9.58576H53.8214L52.3392 6.53581L50.9034 9.58576Z" fill="#1316A8"/>
<path d="M60.5838 13.14H58.7311V3.2334H61.5565C63.7566 3.2334 65.3314 4.35707 65.3314 6.30629C65.3314 7.65928 64.5671 8.57656 63.3629 9.01227L66.4662 13.14H64.3124L61.4407 9.31038H60.5606V13.14H60.5838ZM60.5838 7.84274H61.5565C62.6913 7.84274 63.4555 7.29237 63.4555 6.30629C63.4555 5.29728 62.6913 4.74691 61.5565 4.74691H60.5838V7.84274Z" fill="#1316A8"/>
<path d="M89.5093 13.14H87.6566V3.2334H90.482C92.6821 3.2334 94.2569 4.35707 94.2569 6.30629C94.2569 7.65928 93.4927 8.57656 92.2884 9.01227L95.3917 13.14H93.2379L90.3662 9.31038H89.4862V13.14H89.5093ZM89.5093 7.84274H90.482C91.6168 7.84274 92.381 7.29237 92.381 6.30629C92.381 5.29728 91.6168 4.74691 90.482 4.74691H89.5093V7.84274Z" fill="#1316A8"/>
<path d="M75.1045 3.23359H76.9109V13.5071L69.8705 6.78806V13.1173H68.0641V2.84375L75.1045 9.56283V3.23359Z" fill="#1316A8"/>
<path d="M79.3194 3.2334H85.4797V4.74691H81.1258V7.3153H85.1323V8.85174H81.1258V11.6265H85.5028V13.14H79.3194V3.2334Z" fill="#1316A8"/>
<path d="M100.301 3.2334H103.173C105.396 3.2334 106.577 4.26534 106.577 5.84765C106.577 6.85666 105.952 7.59048 105.188 7.91153C106.323 8.20965 107.203 9.05813 107.203 10.3194C107.203 12.0622 105.836 13.14 103.659 13.14H100.301V3.2334ZM103.057 7.42996C104.099 7.42996 104.748 6.97132 104.748 6.0999C104.748 5.22848 104.099 4.74691 103.057 4.74691H102.108V7.40703H103.057V7.42996ZM103.544 11.6036C104.609 11.6036 105.304 11.0532 105.304 10.1818C105.304 9.31038 104.586 8.78295 103.544 8.78295H102.108V11.6265H103.544V11.6036Z" fill="#1316A8"/>
<path d="M110.978 13.14H109.125V3.2334H111.95C114.15 3.2334 115.725 4.35707 115.725 6.30629C115.725 7.65928 114.961 8.57656 113.757 9.01227L116.86 13.14H114.706L111.858 9.31038H110.978V13.14ZM110.978 7.84274H111.95C113.085 7.84274 113.849 7.29237 113.849 6.30629C113.849 5.29728 113.085 4.74691 111.95 4.74691H110.978V7.84274Z" fill="#1316A8"/>
<path d="M127.675 8.18708C127.675 11.0077 125.406 13.3009 122.557 13.3009C119.732 13.3009 117.439 11.0077 117.439 8.18708C117.439 5.36644 119.709 3.07324 122.557 3.07324C125.406 3.07324 127.675 5.36644 127.675 8.18708ZM119.315 8.18708C119.315 10.1363 120.774 11.604 122.58 11.604C124.387 11.604 125.846 10.1363 125.846 8.18708C125.846 6.23786 124.387 4.77021 122.58 4.77021C120.751 4.77021 119.315 6.23786 119.315 8.18708Z" fill="#1316A8"/>
<path d="M132.006 11.7415C133.025 11.7415 133.743 11.2829 133.743 10.4803C133.743 9.83819 133.326 9.563 132.678 9.24196L131.01 8.46227C129.922 7.95776 129.018 7.31567 129.018 5.91681C129.018 4.19691 130.431 3.07324 132.307 3.07324C133.442 3.07324 134.461 3.55481 134.994 4.05932V5.96268C134.229 5.20592 133.233 4.65555 132.238 4.65555C131.404 4.65555 130.779 5.06833 130.779 5.80215C130.779 6.35252 131.172 6.62771 131.728 6.90289L133.28 7.61378C134.739 8.27881 135.503 8.96677 135.503 10.3427C135.503 12.1773 133.951 13.3239 131.983 13.3239C130.709 13.3239 129.597 12.8423 128.926 12.3378V10.4574C129.806 11.1453 130.871 11.7415 132.006 11.7415Z" fill="#1316A8"/>
<path d="M139 12.0626C139 12.7047 138.49 13.2092 137.842 13.2092H137.819C137.17 13.2092 136.661 12.7047 136.661 12.0626C136.661 11.4205 137.17 10.916 137.819 10.916H137.842C138.49 10.9389 139 11.4435 139 12.0626Z" fill="#1316A8"/>
<path d="M98.5645 26.372H96.7118V16.4883H99.5371C101.737 16.4883 103.312 17.612 103.312 19.5612C103.312 20.9142 102.548 21.8314 101.344 22.2672L104.447 26.3949H102.293L99.4214 22.5653H98.5413V26.372H98.5645ZM98.5645 21.0976H99.5371C100.672 21.0976 101.436 20.5472 101.436 19.5612C101.436 18.5522 100.672 18.0018 99.5371 18.0018H98.5645V21.0976Z" fill="#1316A8"/>
<path d="M88.2819 16.4883H94.4422V18.0018H90.0883V20.5702H94.0948V22.1066H90.0883V24.8814H94.4885V26.3949H88.3051V16.4883H88.2819Z" fill="#1316A8"/>
<path d="M76.6793 21.4185C76.6793 24.2392 74.4097 26.5324 71.5611 26.5324C68.7358 26.5324 66.443 24.2392 66.443 21.4185C66.443 18.5979 68.7126 16.3047 71.5611 16.3047C74.4097 16.3276 76.6793 18.5979 76.6793 21.4185ZM68.2957 21.4185C68.2957 23.3678 69.7547 24.8354 71.5611 24.8354C73.3675 24.8354 74.8266 23.3678 74.8266 21.4185C74.8266 19.4693 73.3675 18.0017 71.5611 18.0017C69.7547 18.0017 68.2957 19.4693 68.2957 21.4185Z" fill="#1316A8"/>
<path d="M38.5828 16.4883C41.4314 16.4883 43.7241 18.621 43.7241 21.4416C43.7241 24.2622 41.4314 26.3949 38.5828 26.3949H35.5027V16.4883H38.5828ZM37.3554 18.0018V24.8585H38.467C40.4818 24.8585 41.8714 23.322 41.8714 21.4187C41.8714 19.5153 40.4818 17.9789 38.467 17.9789H37.3554V18.0018Z" fill="#1316A8"/>
<path d="M47.4758 16.4883V26.372H45.6231V16.4883H47.4758Z" fill="#1316A8"/>
<path d="M52.4319 24.973C53.4508 24.973 54.1688 24.5144 54.1688 23.7117C54.1688 23.0696 53.7519 22.7945 53.1035 22.4734L51.436 21.6937C50.3476 21.1892 49.4444 20.5471 49.4444 19.1483C49.4444 17.4284 50.8802 16.3047 52.7329 16.3047C53.8677 16.3047 54.8867 16.7863 55.4194 17.2908V19.1941C54.6551 18.4374 53.6593 17.887 52.6634 17.887C51.8297 17.887 51.2044 18.2998 51.2044 19.0336C51.2044 19.584 51.5981 19.8592 52.1539 20.1343L53.7056 20.8452C55.1646 21.5103 55.9289 22.1982 55.9289 23.5741C55.9289 25.4087 54.3772 26.5553 52.4087 26.5553C51.135 26.5553 50.0233 26.0737 49.3517 25.5692V23.6888C50.2318 24.3768 51.2971 24.973 52.4319 24.973Z" fill="#1316A8"/>
<path d="M65.0072 23.7347V25.8444C64.2661 26.303 63.386 26.5324 62.4134 26.5324C59.5648 26.5324 57.2721 24.2392 57.2721 21.4185C57.2721 18.5979 59.5648 16.3047 62.4134 16.3047C63.3629 16.3047 64.2661 16.5569 65.0072 16.9926V19.1024C64.4282 18.4603 63.525 18.0475 62.4597 18.0475C60.5606 18.0475 59.1248 19.5152 59.1248 21.4185C59.1248 23.3219 60.5838 24.7895 62.4597 24.7895C63.525 24.7895 64.4282 24.3768 65.0072 23.7347Z" fill="#1316A8"/>
<path d="M76.8414 16.4883H78.8794L81.9827 23.1156L85.0628 16.4883H87.0313L81.9364 26.7848L76.8414 16.4883Z" fill="#1316A8"/>
<path d="M107.851 26.372V21.9232L104.123 16.4653H106.207L108.778 20.2262L111.371 16.4653H113.456L109.727 21.9232V26.372H107.851Z" fill="#1316A8"/>
<path d="M27.4202 9.12675C27.2349 10.4339 26.6096 14.7451 23.4137 18.9646C20.1714 23.3217 15.9334 25.4314 14.6365 26.0735C13.3627 25.4314 9.10147 23.3217 5.85922 18.9646C2.68644 14.768 2.06115 10.4568 1.87588 9.12675L3.79807 8.09481V6.67303L5.72026 5.64109V4.2193C8.36038 2.95804 11.2784 2.15542 14.6365 1.69678C17.9945 2.13249 20.9125 2.95804 23.5527 4.2193V5.64109L25.4748 6.67303V8.09481L27.4202 9.12675Z" fill="url(#paint0_linear_2_366)"/>
<path d="M27.2118 7.086V5.66421L25.2896 4.63227V3.14169L24.3169 2.68305C21.5147 1.37592 18.4345 0.504505 14.868 0.022932L14.6365 0L14.4049 0.022932C10.8615 0.504505 7.75825 1.37592 4.97917 2.70598L4.0065 3.16462V4.6552L2.08431 5.66421V7.086L0 8.18673L0.162113 9.35627C0.717927 13.3006 2.17694 16.878 4.49284 19.9738C6.83189 23.1155 9.98151 25.6839 13.8722 27.6102L14.6365 28L15.4007 27.6102C19.2914 25.6839 22.441 23.1155 24.7801 19.9738C27.096 16.878 28.555 13.3006 29.1108 9.35627L29.2729 8.18673L27.2118 7.086ZM27.4202 9.12694C27.2349 10.4341 26.6096 14.7453 23.4137 18.9648C20.1714 23.3219 15.9334 25.4316 14.6365 26.0737C13.3627 25.4316 9.10147 23.3219 5.85921 18.9648C2.68644 14.7682 2.06115 10.457 1.87587 9.12694L3.79807 8.095V6.67322L5.72026 5.64128V4.21949C8.36038 2.95823 11.2784 2.15561 14.6365 1.69697C17.9945 2.13268 20.9125 2.95823 23.5526 4.21949V5.64128L25.4748 6.67322V8.095L27.4202 9.12694Z" fill="#FFC200"/>
<path d="M11.7879 5.13695L11.8805 16.7176L11.7879 16.7635C10.5605 13.6677 9.81939 9.81508 9.5878 5.93957C8.98567 6.21475 8.33722 6.5358 7.66561 6.94858C7.94352 10.4572 8.54565 13.5301 9.63412 16.4654L9.00883 16.8093C7.36454 14.5391 6.29923 11.7872 5.58131 8.50796C5.07181 8.9666 4.58547 9.4711 4.07597 10.0215C5.02549 13.9428 6.55398 16.924 8.75408 19.3319L10.4447 18.3229C11.2784 20.0428 12.4364 21.7397 13.7333 23.0927V4.79297C13.0848 4.86176 12.4364 4.97642 11.7879 5.13695Z" fill="#FFC200"/>
<path d="M22.7189 11.1222C23.4137 10.3655 23.5526 9.8151 23.5526 9.15007C23.5526 8.20986 22.7652 7.36137 21.6073 6.62755C20.9125 6.19184 19.8472 5.6644 18.2956 5.22869C17.4155 4.99937 16.466 4.83885 15.5165 4.81592V23.1386C19.4072 21.1665 24.0158 15.7316 24.039 12.9568C24.0853 12.1083 23.6453 11.5579 22.7189 11.1222ZM17.4618 6.99446C18.4114 6.99446 21.5147 7.9576 21.5147 9.19593C21.5147 9.63164 21.121 10.2737 19.8935 10.9158L17.4618 12.2V6.99446ZM19.8704 17.1533C19.3146 17.7725 18.4345 18.7357 17.4618 19.4695V14.218C17.4618 14.218 20.982 12.2688 21.0978 12.1771C22.14 12.4523 22.0936 13.209 22.0936 13.2778C22.0936 14.241 21.0978 15.7316 19.8704 17.1533Z" fill="#FFC200"/>
</g>
<defs>
<linearGradient id="paint0_linear_2_366" x1="1.87298" y1="13.9084" x2="27.4111" y2="13.9084" gradientUnits="userSpaceOnUse">
<stop stop-color="#4047FF"/>
<stop offset="1" stop-color="#04006C"/>
</linearGradient>
<clipPath id="clip0_2_366">
<rect width="139" height="28" fill="white"/>
</clipPath>
</defs>
</svg>
