<svg width="114" height="158" viewBox="0 0 114 158" fill="none" xmlns="http://www.w3.org/2000/svg">
<path d="M57.0543 158C46.5491 158 36.9857 156.116 28.3642 152.349C19.7426 148.51 12.8599 142.787 7.71592 135.18C2.57197 127.574 0 118.301 0 107.362L26.2993 105.732C26.2993 111.31 27.6397 116.127 30.3203 120.184C33.001 124.241 36.6959 127.356 41.4051 129.53C46.1144 131.63 51.4757 132.681 57.489 132.681C62.9228 132.681 67.9218 131.775 72.4862 129.964C77.123 128.153 80.8179 125.436 83.571 121.814C86.3241 118.12 87.7007 113.664 87.7007 108.448C87.7007 101.711 85.8894 96.7125 82.2669 93.4525C78.7169 90.1201 74.3699 88.0555 69.2259 87.2586C64.082 86.3893 57.7064 85.9546 50.0991 85.9546V64.9821C58.3584 64.9821 64.5891 64.2215 68.7912 62.7001C72.9933 61.1064 75.7827 58.9693 77.1592 56.2889C78.5358 53.536 79.224 49.9138 79.224 45.4223C79.224 38.9748 77.1592 34.0848 73.0295 30.7524C68.8999 27.3475 63.5748 25.6451 57.0543 25.6451C50.0267 25.6451 44.3394 27.6011 39.9924 31.5131C35.7178 35.425 33.5443 40.7497 33.4719 47.4869L7.38989 45.6396C7.38989 36.2944 9.59962 28.1807 14.0191 21.2985C18.4385 14.4163 24.3794 9.16414 31.8418 5.54195C39.3765 1.84732 47.6358 0 56.6196 0C65.2412 0 73.3194 1.70243 80.8541 5.10729C88.3889 8.51215 94.4023 13.4021 98.8942 19.7772C103.459 26.1522 105.741 33.5777 105.741 42.0536C105.741 48.7185 104.183 54.84 101.068 60.4182C97.9523 65.9239 92.8446 70.343 85.7445 73.6754C95.4528 76.2834 102.589 80.8835 107.153 87.4759C111.718 93.9959 114 101.711 114 110.622C114 120.619 111.392 129.204 106.175 136.376C101.031 143.475 94.1125 148.872 85.4185 152.567C76.797 156.189 67.3422 158 57.0543 158Z" fill="#F2F2F2"/>
</svg>
