<svg width="155" height="28" viewBox="0 0 155 28" fill="none" xmlns="http://www.w3.org/2000/svg">
<g clip-path="url(#clip0_2_405)">
<path fill-rule="evenodd" clip-rule="evenodd" d="M24.5619 13.1137V13.1168L24.5657 13.109C24.5644 13.1106 24.5632 13.1121 24.5619 13.1137ZM24.5619 12.8317V13.1137C23.6527 14.2533 22.4174 15.0604 21.0364 15.4171C19.6322 14.2384 18.1605 13.1494 16.6296 12.1561C16.1955 11.8588 15.7369 11.5547 15.2542 11.2348C14.3608 10.6424 13.3846 9.99544 12.3279 9.23474C12.3246 9.17004 12.3164 9.10683 12.308 9.04347C12.2974 8.96152 12.2866 8.87933 12.2866 8.79342C12.2866 4.86449 15.2982 1.93146 19.2738 1.93146C21.3187 1.91166 23.2643 2.84932 24.5732 4.48566V4.77076L22.2554 6.84458H21.9853C21.2873 6.04329 20.3013 5.57943 19.2625 5.56357C18.4375 5.55048 17.6432 5.88867 17.0632 6.49989C16.4834 7.11111 16.1683 7.94236 16.1909 8.80123C16.1684 9.65809 16.482 10.4875 17.0594 11.0983C17.6367 11.7091 18.4282 12.0488 19.2512 12.0389C20.2906 12.0221 21.2767 11.5567 21.9741 10.754H22.2441L24.5619 12.8317ZM13.7422 13.0478C13.7408 13.0461 13.7394 13.0443 13.738 13.0426H13.7342L13.7422 13.0478ZM17.5223 15.4484C16.0388 15.1135 14.7071 14.2677 13.7422 13.0478C13.8459 13.1164 13.9462 13.1849 14.0466 13.2535C14.201 13.3589 14.3554 13.4644 14.5219 13.5699C15.467 14.2338 16.4796 14.8352 17.5223 15.4484Z" fill="black"/>
<path fill-rule="evenodd" clip-rule="evenodd" d="M38.1416 11.95L38.75 14.5655L38.6631 14.8518C38.1859 15.2494 37.5793 15.4612 36.9565 15.4478C35.3761 15.4478 34.4991 15.0596 33.4008 13.3224C33.3855 13.2973 33.3697 13.2713 33.3534 13.2445C32.8091 12.3496 31.7076 10.5384 30.8408 10.5384H30.4734V15.2007H26.4634V1.93115H32.508C35.9846 1.93115 37.8572 3.64475 37.8572 6.36612C37.8703 7.96864 36.8822 9.41172 35.3761 9.98936C35.799 10.2619 36.1477 10.6336 36.3915 11.0716C36.4032 11.0901 36.4149 11.1089 36.4268 11.1278C36.6639 11.5055 36.9431 11.95 37.387 11.95C37.5738 11.9572 37.7584 11.9079 37.9164 11.8089L38.1416 11.95ZM33.748 6.57633C33.7591 6.94097 33.6121 7.29289 33.3444 7.54292C33.0761 7.7935 32.7123 7.9176 32.3454 7.88365H30.4728V5.18973H32.3454C32.7223 5.17045 33.0899 5.31037 33.357 5.57486C33.624 5.83899 33.7659 6.20274 33.748 6.57633Z" fill="black"/>
<path fill-rule="evenodd" clip-rule="evenodd" d="M45.8365 1.93115C49.8919 1.93115 52.9268 4.82001 52.9268 8.68977C52.9268 12.5403 49.8882 15.4484 45.8365 15.4484C41.7849 15.4484 38.75 12.5596 38.75 8.68977C38.75 4.82001 41.7811 1.93115 45.8365 1.93115ZM47.4423 11.5436C48.4312 10.949 49.0214 9.85477 48.9814 8.68977C49.0214 7.52477 48.4312 6.43051 47.4423 5.83601C46.4534 5.24151 45.2234 5.24151 44.2345 5.83601C43.2457 6.43051 42.6554 7.52477 42.6954 8.68977C42.6554 9.85477 43.2457 10.949 44.2345 11.5436C45.2234 12.138 46.4534 12.138 47.4423 11.5436Z" fill="black"/>
<path d="M71.6598 1.93115H68.076L65.8587 9.4199L63.5051 1.93115H61.2326L58.901 9.376L56.6801 1.93115H53.0963L52.9268 2.24235L57.5161 15.4484H59.7887L62.367 8.08732L64.9674 15.4484H67.2436L71.8293 2.24235L71.6598 1.93115Z" fill="black"/>
<path fill-rule="evenodd" clip-rule="evenodd" d="M79.4643 1.93115C83.5082 1.93115 85.995 4.63301 85.995 8.67181L86.0061 8.66383C86.0061 12.7425 83.534 15.4484 79.4754 15.4484H73.7195V1.93115H79.4643ZM79.3116 12.12C80.9604 12.12 82.1593 10.8915 82.16 8.68975V8.69175V8.68776V8.68975C82.1593 6.48404 80.9604 5.25956 79.3116 5.25956H77.4667V12.12H79.3116Z" fill="black"/>
<path d="M107.429 5.25859H111.524V1.93115H99.2378V5.25859H103.333V15.4484H107.429V5.25859Z" fill="black"/>
<path fill-rule="evenodd" clip-rule="evenodd" d="M118.342 1.93115C121.719 1.93115 123.539 3.68021 123.539 6.45154L123.554 6.43557C123.554 8.20459 122.606 9.43053 121.201 10.1213L123.811 15.1369L123.634 15.4484H119.742L117.313 10.7004H116.384V15.4484H112.47V1.93115H118.342ZM119.561 6.66558C119.573 7.03732 119.43 7.39652 119.17 7.65145C118.91 7.90692 118.555 8.03285 118.198 7.99694H116.383V5.25356H118.198C118.565 5.23264 118.923 5.37471 119.183 5.64436C119.442 5.91362 119.58 6.28478 119.561 6.66558Z" fill="black"/>
<path d="M125.701 1.93115H129.482V15.4484H125.701V1.93115Z" fill="black"/>
<path d="M138.869 7.98359L143.322 2.24235L143.141 1.93115H138.946L135.307 6.7348V1.93115H131.372V15.4484H135.307V11.2911L136.022 10.4174L139.364 15.4484H143.481L143.659 15.1372L138.869 7.98359Z" fill="black"/>
<path d="M154.941 5.25859V1.93115H145.549V15.4484H155V12.1209H149.305V10.2498H153.596V7.12979H149.305V5.25859H154.941Z" fill="black"/>
<path d="M92.7934 15.4484C95.738 15.4484 98.2927 14.0478 98.2927 11.339C98.2927 8.39157 95.7182 7.62586 93.4439 6.98713C92.553 6.72549 91.6384 6.42535 91.6384 5.78277C91.6384 5.32104 92.1469 5.04016 92.9156 5.04016C94.2362 5.04016 95.3515 5.84049 95.9195 6.36379H96.203L98.1112 4.15902V3.87813C97.0981 2.77766 95.0679 1.93115 92.8368 1.93115C89.7107 1.93115 87.5426 3.578 87.5426 5.96363C87.5426 8.53009 89.9315 9.65364 91.9617 10.1962C93.2822 10.5579 94.1772 10.6195 94.1772 11.3197C94.1772 11.8237 93.5464 12.1239 92.5727 12.1239C91.3349 12.1239 89.8329 11.3543 89.1037 10.6387H88.8198L86.9512 12.9242V13.2051C88.1339 14.5095 90.2981 15.4292 92.7934 15.4292" fill="black"/>
<path d="M26.4634 27.9998C25.5276 25.8385 23.6485 23.0651 16.2871 19.1021C12.8963 17.1894 7.09584 14.2668 1.89024 8.68945C2.36004 10.7016 4.78098 15.1237 15.1997 20.6475C18.0754 22.2312 22.9551 23.7345 26.4634 27.9998Z" fill="black"/>
<path d="M25.5183 24.1379C24.6606 21.5728 23.1138 18.2897 15.7575 13.413C12.1764 10.9553 6.92021 7.85654 0 0C0.494824 2.11965 2.68305 7.63767 13.7012 14.7992C17.3226 17.3681 21.9922 18.954 25.5183 24.1379Z" fill="black"/>
</g>
<defs>
<clipPath id="clip0_2_405">
<rect width="155" height="28" fill="white"/>
</clipPath>
</defs>
</svg>
