<svg width="150" height="28" viewBox="0 0 150 28" fill="none" xmlns="http://www.w3.org/2000/svg">
<path d="M141.593 23.8821C141.593 21.6586 143.407 19.9292 145.549 19.9292C147.775 19.9292 149.505 21.741 149.505 23.8821C149.505 26.0233 147.692 27.8351 145.549 27.8351C143.407 27.8351 141.593 26.1057 141.593 23.8821Z" fill="#86BC25"/>
<path d="M22.7473 13.259C22.7473 17.8708 21.5934 21.3296 19.1209 23.8002C16.6484 26.2708 13.1868 27.5061 8.73626 27.5061H0V0.0825195H9.23077C13.5989 0.0825195 16.8956 1.15311 19.2033 3.45899C21.5934 5.68252 22.7473 8.97664 22.7473 13.259ZM15.1648 13.506C15.1648 10.9531 14.6703 9.14134 13.6813 7.90605C12.7747 6.75311 11.2088 6.09428 9.23077 6.09428H7.25275V21.4119H8.9011C11.1264 21.4119 12.6923 20.7531 13.7637 19.4355C14.6703 18.1178 15.1648 16.1413 15.1648 13.506Z" fill="#040000"/>
<path d="M53.5714 0H46.7308V27.5059H53.5714V0Z" fill="#040000"/>
<path d="M76.1538 17.2116C76.1538 20.5057 75.3297 23.141 73.5165 25.0351C71.7033 26.9292 69.2308 27.8351 66.0989 27.8351C63.0494 27.8351 60.6593 26.9292 58.8462 24.9528C57.033 22.9763 56.1264 20.4234 56.1264 17.2116C56.1264 13.9175 56.9506 11.2822 58.7637 9.47041C60.5769 7.57629 63.0495 6.67041 66.1813 6.67041C68.1593 6.67041 69.8901 7.08217 71.3736 7.9057C72.9396 8.72923 74.011 9.96453 74.8352 11.5292C75.8242 13.2586 76.1538 15.0704 76.1538 17.2116ZM63.2143 17.2116C63.2143 19.0234 63.4615 20.2586 63.8736 21.1645C64.2857 22.0704 65.0275 22.4822 66.1813 22.4822C67.3352 22.4822 67.9945 22.0704 68.489 21.1645C68.9011 20.2586 69.1484 18.8586 69.1484 17.2116C69.1484 15.3998 68.9011 14.1645 68.489 13.2586C68.0769 12.4351 67.3352 11.941 66.1813 11.941C65.1923 11.941 64.3681 12.3528 63.8736 13.2586C63.4615 14.1645 63.2143 15.3998 63.2143 17.2116Z" fill="#040000"/>
<path d="M85.7967 7H78.9561V27.4235H85.7967V7Z" fill="#040000"/>
<path d="M85.7967 0H78.9561V4.61176H85.7967V0Z" fill="#040000"/>
<path d="M99.7253 22.2353C100.632 22.2353 101.786 21.9883 103.022 21.5765V26.7647C102.115 27.1765 101.209 27.4236 100.385 27.5883C99.5605 27.753 98.5714 27.8353 97.4176 27.8353C95.1099 27.8353 93.4616 27.2589 92.3901 26.0236C91.4011 24.8706 90.8242 23.0589 90.8242 20.6706V12.2706H88.4341V7.00003H90.8242V1.89415L97.7473 0.741211V7.16474H102.198V12.353H97.7473V20.2589C97.9121 21.6589 98.489 22.2353 99.7253 22.2353Z" fill="#040000"/>
<path d="M115.714 22.2353C116.621 22.2353 117.775 21.9883 119.011 21.5765V26.7647C118.104 27.1765 117.198 27.4236 116.374 27.5883C115.549 27.753 114.56 27.8353 113.407 27.8353C111.099 27.8353 109.451 27.2589 108.379 26.0236C107.39 24.8706 106.813 23.0589 106.813 20.6706V12.2706H104.423V7.00003H106.813V1.8118L113.736 0.741211V7.16474H118.187V12.353H113.736V20.2589C113.819 21.6589 114.478 22.2353 115.714 22.2353Z" fill="#040000"/>
<path d="M137.473 9.05865C135.824 7.41159 133.516 6.67041 130.549 6.67041C127.418 6.67041 124.945 7.57629 123.214 9.47041C121.484 11.3645 120.659 13.9998 120.659 17.4586C120.659 20.7528 121.566 23.3881 123.379 25.1998C125.275 27.0116 127.83 27.9175 131.126 27.9175C132.775 27.9175 134.093 27.8351 135.247 27.5881C136.319 27.341 137.555 27.0116 138.544 26.4351L137.555 21.8233C136.813 22.1528 135.989 22.3998 135.33 22.5645C134.341 22.8116 133.187 22.8939 132.033 22.8939C130.714 22.8939 129.643 22.5645 128.901 21.9881C128.159 21.3292 127.747 20.4234 127.747 19.2704H140.027V16.0586C139.945 13.0116 139.038 10.7057 137.473 9.05865ZM127.747 14.741C127.83 13.6704 128.159 12.7645 128.654 12.2704C129.148 11.7763 129.808 11.5292 130.714 11.5292C131.538 11.5292 132.363 11.7763 132.857 12.3528C133.352 12.9292 133.599 13.6704 133.681 14.741H127.747Z" fill="#040000"/>
<path d="M41.6209 9.05865C39.8901 7.41159 37.6648 6.67041 34.6978 6.67041C31.5659 6.67041 29.0934 7.57629 27.3626 9.47041C25.6319 11.3645 24.8077 13.9998 24.8077 17.4586C24.8077 20.7528 25.7143 23.3881 27.5275 25.1998C29.4231 27.0116 31.978 27.9175 35.2747 27.9175C36.9231 27.9175 38.2417 27.8351 39.3956 27.5881C40.467 27.341 41.7033 27.0116 42.6923 26.4351L41.7033 21.741C40.9615 22.0704 40.1373 22.3175 39.478 22.4822C38.489 22.7292 37.3352 22.8116 36.1813 22.8116C34.8626 22.8116 33.7912 22.4822 33.0494 21.9057C32.3077 21.2469 31.8956 20.341 31.8956 19.1881H44.1758V16.0586C44.0934 13.0116 43.1868 10.7057 41.6209 9.05865ZM31.8132 14.741C31.8956 13.6704 32.2253 12.7645 32.7198 12.2704C33.2143 11.7763 33.8736 11.5292 34.7802 11.5292C35.6868 11.5292 36.4286 11.7763 36.9231 12.3528C37.4176 12.9292 37.6648 13.6704 37.7472 14.741H31.8132Z" fill="#040000"/>
</svg>
