<svg width="136" height="29" viewBox="0 0 136 29" fill="none" xmlns="http://www.w3.org/2000/svg">
<g clip-path="url(#clip0_2_349)">
<path d="M36.4566 10.9902V14.3507H41.8578V16.0865H36.4566V20.3171H34.3799V9.27148H42.5443V10.9902H36.4566Z" fill="#2A5761"/>
<path d="M51.3303 17.7581H45.7392L44.6382 20.3127H42.4968L47.5309 9.26709H49.5774L54.6245 20.3127H52.4528L51.3303 17.7581ZM50.6438 16.1503L48.5369 11.3227L46.4429 16.1503H50.6438Z" fill="#2A5761"/>
<path d="M63.3587 20.3171L61.0748 17.0802C60.9798 17.0887 60.833 17.0972 60.6431 17.0972H58.1173V20.3171H56.0406V9.27148H60.6431C61.6102 9.27148 62.4564 9.42928 63.1774 9.74487C63.8984 10.0605 64.4467 10.5125 64.831 11.101C65.2153 11.6896 65.4052 12.389 65.4052 13.1993C65.4052 14.0309 65.198 14.7474 64.7921 15.3444C64.3863 15.9415 63.7948 16.3935 63.0263 16.6878L65.5995 20.3171H63.3587ZM62.6118 11.5744C62.1412 11.1949 61.4547 11.0072 60.5524 11.0072H58.126V15.4084H60.5524C61.4591 15.4084 62.1455 15.2165 62.6118 14.8327C63.0781 14.4488 63.3156 13.903 63.3156 13.1993C63.3156 12.4956 63.0781 11.954 62.6118 11.5744Z" fill="#2A5761"/>
<path d="M75.0375 20.3171L72.7535 17.0802C72.6585 17.0887 72.5117 17.0972 72.3218 17.0972H69.7961V20.3171H67.7194V9.27148H72.3218C73.2889 9.27148 74.1351 9.42928 74.8561 9.74487C75.5771 10.0605 76.1255 10.5125 76.5097 11.101C76.894 11.6896 77.0839 12.389 77.0839 13.1993C77.0839 14.0309 76.881 14.7474 76.4708 15.3444C76.0607 15.9458 75.4735 16.3935 74.705 16.6878L77.2782 20.3171H75.0375ZM74.2862 11.5744C73.8156 11.1949 73.1291 11.0072 72.2268 11.0072H69.8004V15.4084H72.2268C73.1335 15.4084 73.8199 15.2165 74.2862 14.8327C74.7525 14.4488 74.99 13.903 74.99 13.1993C74.99 12.4956 74.7568 11.954 74.2862 11.5744Z" fill="#2A5761"/>
<path d="M81.5396 19.7414C80.6243 19.251 79.9032 18.5729 79.3808 17.7072C78.8584 16.8372 78.5994 15.8691 78.5994 14.7944C78.5994 13.7197 78.8584 12.7516 79.3808 11.8816C79.9032 11.0116 80.6199 10.3335 81.5396 9.8473C82.4549 9.35686 83.4824 9.11377 84.6222 9.11377C85.762 9.11377 86.7896 9.35686 87.7049 9.8473C88.6202 10.3377 89.3412 11.0116 89.8636 11.873C90.386 12.7345 90.6451 13.7111 90.6451 14.7944C90.6451 15.8776 90.3817 16.8499 89.8636 17.7157C89.3412 18.5772 88.6245 19.2552 87.7049 19.7414C86.7896 20.2319 85.762 20.4749 84.6222 20.4749C83.4824 20.4749 82.4592 20.2319 81.5396 19.7414ZM86.6385 18.1805C87.2343 17.8479 87.7049 17.3873 88.046 16.7902C88.387 16.1974 88.5554 15.5322 88.5554 14.7944C88.5554 14.0566 88.3827 13.3913 88.046 12.7985C87.7049 12.2057 87.2343 11.7408 86.6385 11.4082C86.0427 11.0755 85.3691 10.9092 84.6265 10.9092C83.8839 10.9092 83.2104 11.0755 82.6146 11.4082C82.0188 11.7408 81.5482 12.2014 81.2071 12.7985C80.866 13.3913 80.6977 14.0566 80.6977 14.7944C80.6977 15.5322 80.866 16.1974 81.2071 16.7902C81.5482 17.383 82.0145 17.8479 82.6146 18.1805C83.2104 18.5132 83.8839 18.6795 84.6265 18.6795C85.3691 18.6795 86.0427 18.5089 86.6385 18.1805Z" fill="#2A5761"/>
<path d="M105.791 20.4921L104.383 19.1487C103.338 20.0315 102.086 20.475 100.627 20.475C99.8499 20.475 99.1505 20.3471 98.5331 20.0955C97.9157 19.8438 97.4321 19.4941 97.0781 19.0463C96.7284 18.5985 96.5514 18.091 96.5514 17.5238C96.5514 16.8415 96.7543 16.2359 97.1601 15.7156C97.566 15.1953 98.2265 14.6835 99.1418 14.176C98.6928 13.7325 98.3733 13.3231 98.1834 12.9393C97.9934 12.5554 97.8941 12.1588 97.8941 11.7494C97.8941 10.969 98.1877 10.3421 98.7792 9.86442C99.3707 9.38677 100.156 9.14795 101.137 9.14795C102.043 9.14795 102.764 9.36545 103.308 9.80471C103.852 10.2397 104.124 10.8325 104.124 11.5788C104.124 12.146 103.947 12.6535 103.589 13.0928C103.23 13.5363 102.648 13.9799 101.84 14.4362L104.254 16.7093C104.521 16.1932 104.729 15.5749 104.875 14.8456L106.49 15.3659C106.279 16.3425 105.942 17.1869 105.484 17.8906L106.892 19.2169L105.791 20.4921ZM103.205 18.0271L100.247 15.2337C99.6081 15.5791 99.1591 15.916 98.8957 16.2359C98.6324 16.5557 98.5028 16.9182 98.5028 17.3149C98.5028 17.7797 98.7101 18.1507 99.1246 18.4365C99.539 18.7222 100.087 18.863 100.77 18.863C101.702 18.8672 102.509 18.5857 103.205 18.0271ZM100.105 10.8709C99.8499 11.0884 99.7204 11.3699 99.7204 11.7153C99.7204 11.9669 99.7895 12.2057 99.9276 12.4318C100.066 12.6578 100.333 12.9649 100.726 13.3529C101.365 13.0075 101.81 12.7047 102.06 12.4446C102.311 12.1844 102.436 11.9072 102.436 11.6002C102.436 11.276 102.319 11.0159 102.091 10.8282C101.862 10.6406 101.547 10.5425 101.141 10.5425C100.705 10.5468 100.359 10.6577 100.105 10.8709Z" fill="#2A5761"/>
<path d="M115.211 19.7414C114.3 19.251 113.588 18.5772 113.07 17.7157C112.552 16.8542 112.297 15.8819 112.297 14.7944C112.297 13.7111 112.556 12.7388 113.079 11.873C113.601 11.0116 114.318 10.3335 115.229 9.8473C116.14 9.35686 117.159 9.11377 118.29 9.11377C119.205 9.11377 120.043 9.27156 120.798 9.58715C121.554 9.90274 122.193 10.3591 122.715 10.9604L121.372 12.2057C120.561 11.3442 119.568 10.9135 118.385 10.9135C117.616 10.9135 116.93 11.0798 116.325 11.4124C115.717 11.7451 115.246 12.2057 114.905 12.7942C114.564 13.3827 114.395 14.0523 114.395 14.7986C114.395 15.5449 114.564 16.2145 114.905 16.803C115.246 17.3916 115.721 17.8522 116.325 18.1848C116.934 18.5174 117.621 18.6838 118.385 18.6838C119.568 18.6838 120.561 18.2488 121.372 17.3745L122.715 18.6369C122.193 19.2382 121.549 19.6945 120.79 20.0101C120.03 20.3257 119.188 20.4835 118.273 20.4835C117.141 20.4749 116.118 20.2319 115.211 19.7414Z" fill="#2A5761"/>
<path d="M126.61 19.7414C125.694 19.251 124.973 18.5729 124.451 17.7072C123.928 16.8372 123.669 15.8691 123.669 14.7944C123.669 13.7197 123.928 12.7516 124.451 11.8816C124.973 11.0116 125.69 10.3335 126.61 9.8473C127.525 9.35686 128.552 9.11377 129.692 9.11377C130.832 9.11377 131.86 9.35686 132.775 9.8473C133.69 10.3377 134.411 11.0116 134.934 11.873C135.456 12.7345 135.715 13.7111 135.715 14.7944C135.715 15.8776 135.452 16.8499 134.934 17.7157C134.411 18.5772 133.694 19.2552 132.775 19.7414C131.86 20.2319 130.832 20.4749 129.692 20.4749C128.552 20.4749 127.525 20.2319 126.61 19.7414ZM131.704 18.1805C132.3 17.8479 132.771 17.3873 133.112 16.7902C133.453 16.1974 133.621 15.5322 133.621 14.7944C133.621 14.0566 133.448 13.3913 133.112 12.7985C132.771 12.2057 132.3 11.7408 131.704 11.4082C131.108 11.0755 130.435 10.9092 129.692 10.9092C128.95 10.9092 128.276 11.0755 127.68 11.4082C127.084 11.7408 126.614 12.2014 126.273 12.7985C125.932 13.3913 125.763 14.0566 125.763 14.7944C125.763 15.5322 125.932 16.1974 126.273 16.7902C126.614 17.383 127.08 17.8479 127.68 18.1805C128.276 18.5132 128.95 18.6795 129.692 18.6795C130.435 18.6795 131.108 18.5089 131.704 18.1805Z" fill="#2A5761"/>
<path d="M14.8175 8.03487H10.7419V4.00899C10.7419 1.99178 12.3954 0.358398 14.4376 0.358398H18.5133V4.38429C18.5176 6.40149 16.8597 8.03487 14.8175 8.03487Z" fill="#2A5761"/>
<path d="M25.5032 8.03487H21.4276V4.00899C21.4276 1.99178 23.0811 0.358398 25.1233 0.358398H29.199V4.38429C29.2033 6.40149 27.5454 8.03487 25.5032 8.03487Z" fill="#2A5761"/>
<path d="M4.13183 8.03487H0.0561523V4.00899C0.0561523 1.99178 1.70974 0.358398 3.7519 0.358398H7.82758V4.38429C7.8319 6.40149 6.17399 8.03487 4.13183 8.03487Z" fill="#2A5761"/>
<path d="M14.8175 18.5046H10.7419V14.4787C10.7419 12.4615 12.3954 10.8281 14.4376 10.8281H18.5133V14.854C18.5176 16.8712 16.8597 18.5046 14.8175 18.5046Z" fill="#2A5761"/>
<path d="M4.13183 18.5046H0.0561523V14.4787C0.0561523 12.4615 1.70974 10.8281 3.7519 10.8281H7.82758V14.854C7.8319 16.8712 6.17399 18.5046 4.13183 18.5046Z" fill="#2A5761"/>
<path d="M4.13183 28.9743H0.0561523V24.9484C0.0561523 22.9312 1.70974 21.2979 3.7519 21.2979H7.82758V25.3237C7.8319 27.3409 6.17399 28.9743 4.13183 28.9743Z" fill="#2A5761"/>
</g>
<defs>
<clipPath id="clip0_2_349">
<rect width="136" height="29" fill="white"/>
</clipPath>
</defs>
</svg>
