<svg width="130" height="22" viewBox="0 0 130 22" fill="none" xmlns="http://www.w3.org/2000/svg">
<g clip-path="url(#clip0_2_422)">
<path d="M7.97057 0C9.27088 0 11.1527 0.250444 13.6142 0.751924V4.67232C11.7828 3.90677 10.0827 3.52478 8.51191 3.52478C6.30013 3.52478 5.19424 4.16037 5.19424 5.43412C5.19424 5.91032 5.41715 6.29862 5.86317 6.59963C6.23406 6.84336 7.25634 7.35787 8.92754 8.14515C11.3337 9.26346 12.9357 10.2356 13.7339 11.0624C14.681 12.0432 15.1554 13.3122 15.1554 14.8676C15.1554 17.1037 14.2262 18.8092 12.3687 19.9844C10.8639 20.9371 8.91263 21.4118 6.51587 21.4118C4.49208 21.4118 2.45282 21.1625 0.399586 20.661V16.5856C2.61628 17.3156 4.57778 17.6808 6.28408 17.6808C8.64007 17.6808 9.81807 17.0292 9.81807 15.7268C9.81807 15.2413 9.64668 14.8335 9.30296 14.503C8.95151 14.1524 8.05155 13.6668 6.60496 13.0444C4.00982 11.9279 2.31748 10.9755 1.53039 10.188C0.510005 9.14811 0 7.83704 0 6.2526C0 4.21232 0.743301 2.65711 2.22877 1.58858C3.69782 0.529132 5.61081 0 7.97057 0ZM122.307 0C123.634 0 125.353 0.220422 127.462 0.663439L127.949 0.751924V4.67232C126.117 3.90677 124.412 3.52478 122.833 3.52478C120.63 3.52478 119.531 4.16037 119.531 5.43412C119.531 5.91032 119.753 6.29862 120.197 6.59963C120.551 6.83408 121.577 7.34879 123.276 8.14515C125.665 9.26346 127.263 10.2356 128.068 11.0624C129.017 12.0432 129.49 13.3122 129.49 14.8676C129.49 17.1037 128.566 18.8092 126.718 19.9844C125.204 20.9371 123.248 21.4118 120.852 21.4118C118.826 21.4118 116.786 21.1625 114.734 20.661V16.5856C116.932 17.3156 118.894 17.6808 120.62 17.6808C122.976 17.6808 124.153 17.0292 124.153 15.7268C124.153 15.2413 123.986 14.8335 123.653 14.503C123.3 14.1524 122.397 13.6668 120.941 13.0444C118.354 11.9372 116.66 10.9852 115.865 10.188C114.846 9.1574 114.337 7.84138 114.337 6.23858C114.337 4.20718 115.078 2.65711 116.565 1.58858C118.032 0.529132 119.947 0 122.307 0ZM53.92 0.35866L58.8819 13.5443L63.9681 0.35866H70.752V20.9948H65.5291V6.38393L59.7458 21.2044H56.3311L50.6589 6.38393V20.9948H46.7778V0.35866H53.92ZM23.7747 0.358581V20.9947H18.2662V0.358581H23.7747ZM42.9546 0.35866V4.09122H34.1356V8.7509H41.8121V12.1554H34.1356V17.0527H43.1818V20.9948H28.8266V0.35866H42.9546ZM89.9327 0.35866V4.09122H81.1145V8.7509H88.7908V12.1554H81.1145V17.0527H90.1615V20.9948H75.8049V0.35866H89.9327ZM100.17 0.35866L106.944 14.173V0.35866H110.824V20.9948H104.621L97.6675 6.99463V20.9948H93.786V0.35866H100.17Z" fill="#439698"/>
</g>
<defs>
<clipPath id="clip0_2_422">
<rect width="130" height="22" fill="white"/>
</clipPath>
</defs>
</svg>
