<svg width="161" height="36" viewBox="0 0 161 36" fill="none" xmlns="http://www.w3.org/2000/svg">
<g clip-path="url(#clip0_2_451)">
<path d="M117.744 13.0248C117.8 13.0207 117.854 13.0001 117.898 12.9658C117.942 12.9316 117.975 12.8851 117.992 12.8323C118.01 12.7795 118.011 12.7228 117.995 12.6694C117.98 12.616 117.949 12.5682 117.906 12.5323C117.864 12.4963 117.811 12.4738 117.755 12.4674C117.699 12.4611 117.643 12.4714 117.593 12.4968C117.543 12.5223 117.502 12.5618 117.475 12.6104C117.448 12.659 117.436 12.7145 117.441 12.7698C117.447 12.8433 117.483 12.9112 117.539 12.959C117.596 13.0067 117.67 13.0304 117.744 13.0248ZM99.7246 3.94484C99.7246 4.10603 99.773 4.2636 99.8636 4.39763C99.9542 4.53165 100.083 4.63611 100.234 4.6978C100.384 4.75948 100.55 4.77562 100.71 4.74418C100.87 4.71273 101.017 4.63511 101.132 4.52113C101.248 4.40715 101.326 4.26193 101.358 4.10383C101.39 3.94574 101.373 3.78187 101.311 3.63295C101.249 3.48403 101.143 3.35674 101.007 3.26719C100.872 3.17763 100.712 3.12984 100.549 3.12984C100.33 3.12984 100.121 3.2157 99.9661 3.36854C99.8115 3.52139 99.7246 3.72868 99.7246 3.94484ZM104.96 5.69484C104.96 5.85723 105.009 6.01596 105.101 6.15092C105.192 6.28587 105.322 6.39097 105.474 6.45288C105.626 6.5148 105.793 6.53074 105.954 6.49869C106.115 6.46665 106.263 6.38805 106.379 6.27287C106.494 6.15769 106.573 6.01112 106.604 5.85172C106.636 5.69233 106.619 5.5273 106.555 5.37756C106.492 5.22781 106.384 5.10009 106.247 5.01059C106.11 4.9211 105.949 4.87385 105.785 4.87484C105.676 4.87483 105.569 4.89608 105.468 4.93735C105.368 4.97862 105.277 5.0391 105.2 5.11531C105.124 5.19152 105.063 5.28196 105.022 5.38141C104.981 5.48087 104.96 5.58739 104.96 5.69484ZM85.2311 27.0398C85.2301 27.2022 85.2779 27.3613 85.3684 27.4968C85.459 27.6323 85.5882 27.7381 85.7397 27.801C85.8912 27.8638 86.0582 27.8808 86.2194 27.8497C86.3807 27.8186 86.529 27.7409 86.6456 27.6264C86.7621 27.512 86.8416 27.3659 86.874 27.2067C86.9065 27.0475 86.8903 26.8823 86.8277 26.7322C86.765 26.5821 86.6587 26.4537 86.5222 26.3634C86.3856 26.2731 86.225 26.2248 86.0607 26.2248C85.952 26.2242 85.8442 26.2448 85.7436 26.2854C85.643 26.3261 85.5515 26.386 85.4744 26.4618C85.3973 26.5375 85.3361 26.6276 85.2943 26.7268C85.2526 26.826 85.2311 26.9324 85.2311 27.0398ZM89.3034 30.4298C89.3034 30.5922 89.3522 30.751 89.4436 30.8859C89.535 31.0209 89.6649 31.126 89.8167 31.1879C89.9686 31.2498 90.1357 31.2657 90.2968 31.2337C90.4579 31.2016 90.6057 31.1231 90.7215 31.0079C90.8373 30.8927 90.9159 30.7461 90.9474 30.5867C90.9788 30.4273 90.9617 30.2623 90.8981 30.1126C90.8345 29.9628 90.7274 29.8351 90.5903 29.7456C90.4532 29.6561 90.2923 29.6088 90.128 29.6098C89.9089 29.6112 89.6991 29.6981 89.5446 29.8518C89.3901 30.0054 89.3034 30.2132 89.3034 30.4298ZM94.5089 31.9998C94.5089 32.162 94.5576 32.3206 94.6488 32.4554C94.7399 32.5903 94.8695 32.6954 95.0211 32.7574C95.1727 32.8195 95.3395 32.8357 95.5005 32.8041C95.6614 32.7724 95.8092 32.6943 95.9252 32.5797C96.0413 32.465 96.1203 32.3189 96.1523 32.1598C96.1843 32.0007 96.1679 31.8359 96.1051 31.686C96.0423 31.5362 95.936 31.4081 95.7995 31.318C95.6631 31.2279 95.5027 31.1798 95.3386 31.1798C95.1186 31.1798 94.9075 31.2662 94.7519 31.42C94.5964 31.5738 94.5089 31.7824 94.5089 31.9998ZM99.841 31.9348C99.8449 32.0949 99.8965 32.2503 99.9893 32.3815C100.082 32.5128 100.212 32.6141 100.363 32.6729C100.513 32.7317 100.678 32.7453 100.837 32.712C100.995 32.6788 101.14 32.6001 101.254 32.4859C101.367 32.3716 101.444 32.2269 101.475 32.0697C101.506 31.9125 101.489 31.7498 101.427 31.6019C101.365 31.4541 101.26 31.3276 101.125 31.2383C100.991 31.149 100.833 31.1009 100.671 31.0998C100.562 31.0998 100.454 31.1211 100.354 31.1623C100.253 31.2036 100.162 31.2641 100.086 31.3403C100.009 31.4165 99.9485 31.507 99.9073 31.6064C99.8662 31.7059 99.8453 31.8124 99.846 31.9198M104.966 30.3148C104.965 30.4774 105.012 30.6367 105.103 30.7723C105.194 30.9079 105.324 31.0138 105.475 31.0764C105.627 31.1391 105.794 31.1558 105.956 31.1243C106.117 31.0928 106.265 31.0146 106.382 30.8996C106.498 30.7847 106.577 30.6381 106.609 30.4786C106.641 30.319 106.624 30.1538 106.561 30.0037C106.497 29.8537 106.39 29.7257 106.253 29.6359C106.116 29.5462 105.955 29.4988 105.79 29.4998C105.57 29.4998 105.359 29.5862 105.203 29.74C105.048 29.8938 104.96 30.1024 104.96 30.3198M109.038 27.0798C109.038 27.242 109.087 27.4006 109.178 27.5354C109.269 27.6703 109.398 27.7754 109.55 27.8374C109.702 27.8995 109.868 27.9157 110.029 27.8841C110.19 27.8524 110.338 27.7743 110.454 27.6597C110.57 27.545 110.649 27.3989 110.681 27.2398C110.713 27.0807 110.697 26.9159 110.634 26.766C110.571 26.6162 110.465 26.4881 110.328 26.398C110.192 26.3079 110.032 26.2598 109.868 26.2598C109.647 26.2598 109.436 26.3462 109.281 26.5C109.125 26.6538 109.038 26.8624 109.038 27.0798ZM108.982 8.92984C108.983 9.09081 109.032 9.24789 109.124 9.38126C109.215 9.51462 109.344 9.6183 109.495 9.67922C109.646 9.74014 109.811 9.75557 109.971 9.72356C110.13 9.69155 110.277 9.61354 110.392 9.49936C110.506 9.38519 110.585 9.23996 110.616 9.082C110.647 8.92405 110.631 8.76044 110.568 8.6118C110.506 8.46317 110.4 8.33618 110.264 8.24685C110.129 8.15751 109.97 8.10984 109.807 8.10984C109.698 8.10983 109.59 8.13108 109.49 8.17235C109.39 8.21362 109.299 8.2741 109.222 8.35031C109.145 8.42652 109.085 8.51696 109.044 8.61641C109.002 8.71587 108.982 8.82239 108.982 8.92984ZM103.2 6.76984C103.199 6.56436 103.136 6.36378 103.02 6.19341C102.904 6.02304 102.739 5.89052 102.547 5.81257C102.355 5.73462 102.143 5.71474 101.939 5.75543C101.736 5.79612 101.549 5.89557 101.402 6.04121C101.255 6.18685 101.156 6.37217 101.115 6.57377C101.075 6.77538 101.096 6.98423 101.176 7.17397C101.256 7.36372 101.391 7.52585 101.564 7.63991C101.737 7.75396 101.94 7.81483 102.148 7.81484C102.286 7.81484 102.424 7.78777 102.552 7.7352C102.68 7.68262 102.796 7.60556 102.894 7.50846C102.991 7.41136 103.069 7.29612 103.121 7.16936C103.174 7.04261 103.201 6.90683 103.2 6.76984ZM106.741 8.92484C106.74 8.71936 106.678 8.51878 106.561 8.34841C106.445 8.17804 106.28 8.04552 106.088 7.96757C105.896 7.88962 105.684 7.86974 105.481 7.91043C105.277 7.95112 105.09 8.05057 104.943 8.19621C104.796 8.34185 104.697 8.52717 104.657 8.72877C104.616 8.93038 104.638 9.13923 104.717 9.32897C104.797 9.51872 104.932 9.68085 105.105 9.79491C105.278 9.90896 105.481 9.96983 105.689 9.96984C105.828 9.96984 105.965 9.94277 106.093 9.89019C106.221 9.83762 106.337 9.76056 106.435 9.66346C106.533 9.56636 106.61 9.45112 106.663 9.32436C106.715 9.19761 106.742 9.06183 106.741 8.92484ZM109.503 11.9998C109.503 11.7929 109.441 11.5907 109.325 11.4187C109.208 11.2468 109.043 11.1129 108.849 11.0339C108.656 10.955 108.443 10.9346 108.238 10.9753C108.033 11.016 107.844 11.116 107.697 11.2627C107.549 11.4093 107.449 11.596 107.408 11.799C107.368 12.0021 107.39 12.2124 107.471 12.4032C107.551 12.5941 107.688 12.7569 107.862 12.8712C108.037 12.9854 108.242 13.0458 108.451 13.0448C108.59 13.0448 108.727 13.0178 108.855 12.9652C108.983 12.9126 109.099 12.8356 109.197 12.7385C109.295 12.6414 109.372 12.5261 109.425 12.3994C109.477 12.2726 109.504 12.1368 109.503 11.9998ZM101.93 0.304836C101.937 0.232077 101.915 0.159442 101.869 0.102451C101.823 0.0454599 101.756 0.00863213 101.682 -0.000163962C101.607 -0.0057649 101.533 0.0177496 101.476 0.065375C101.418 0.113001 101.381 0.180976 101.374 0.254836C101.368 0.328874 101.392 0.402176 101.44 0.459139C101.488 0.516103 101.557 0.552232 101.632 0.559836C101.669 0.563257 101.706 0.559334 101.741 0.548296C101.777 0.537259 101.81 0.519331 101.838 0.495568C101.866 0.471805 101.889 0.442687 101.906 0.409931C101.923 0.377175 101.933 0.341441 101.935 0.304836M108.987 2.83484C108.991 2.7983 108.987 2.76146 108.976 2.72647C108.964 2.69147 108.946 2.65905 108.922 2.63109C108.898 2.60313 108.869 2.58021 108.836 2.56368C108.802 2.54715 108.766 2.53734 108.729 2.53484C108.659 2.53661 108.593 2.56387 108.542 2.61136C108.491 2.65886 108.46 2.72324 108.454 2.79212C108.449 2.86099 108.469 2.9295 108.511 2.98446C108.554 3.03942 108.615 3.07695 108.684 3.08984C108.758 3.09538 108.832 3.07171 108.889 3.02397C108.945 2.97623 108.981 2.90827 108.987 2.83484ZM114.527 6.76484C114.53 6.72804 114.526 6.69092 114.515 6.65563C114.504 6.62035 114.486 6.58758 114.462 6.55923C114.438 6.53087 114.409 6.50749 114.375 6.49043C114.342 6.47337 114.306 6.46298 114.269 6.45984C114.232 6.45641 114.194 6.46034 114.159 6.47138C114.124 6.48241 114.091 6.50034 114.063 6.5241C114.034 6.54787 114.011 6.57698 113.994 6.60974C113.978 6.6425 113.968 6.67823 113.965 6.71484C113.958 6.75325 113.959 6.79277 113.967 6.83086C113.976 6.86896 113.993 6.90477 114.017 6.936C114.041 6.96723 114.071 6.99318 114.106 7.01218C114.14 7.03118 114.179 7.04281 114.218 7.04632C114.257 7.04983 114.297 7.04514 114.335 7.03256C114.372 7.01997 114.406 6.99977 114.436 6.97325C114.465 6.94673 114.488 6.91448 114.503 6.87859C114.519 6.84269 114.527 6.80394 114.527 6.76484ZM104.94 3.13484C104.946 3.03091 104.92 2.92767 104.867 2.83798C104.813 2.7483 104.735 2.67613 104.64 2.6305C104.545 2.58486 104.439 2.56776 104.335 2.58135C104.23 2.59493 104.132 2.63859 104.053 2.70687C103.973 2.77516 103.916 2.86505 103.888 2.96535C103.86 3.06564 103.862 3.17189 103.895 3.27085C103.927 3.36981 103.989 3.45709 104.071 3.52182C104.154 3.58655 104.254 3.62585 104.358 3.63484C104.43 3.64097 104.502 3.63279 104.571 3.61079C104.639 3.58879 104.702 3.55341 104.757 3.50675C104.811 3.4601 104.855 3.40313 104.887 3.33924C104.918 3.27535 104.936 3.20583 104.94 3.13484ZM110.318 5.79484C110.324 5.72401 110.316 5.65266 110.293 5.58506C110.271 5.51746 110.235 5.45497 110.188 5.40132C110.141 5.34767 110.083 5.30396 110.019 5.27278C109.954 5.2416 109.884 5.22359 109.812 5.21984C109.74 5.2104 109.667 5.21547 109.597 5.23476C109.527 5.25405 109.462 5.28715 109.405 5.33205C109.349 5.37695 109.302 5.43273 109.268 5.49601C109.234 5.55928 109.213 5.62874 109.207 5.70017C109.201 5.77161 109.209 5.84354 109.232 5.91161C109.255 5.97968 109.291 6.04247 109.339 6.0962C109.388 6.14992 109.446 6.19345 109.512 6.22415C109.577 6.25486 109.648 6.2721 109.721 6.27484C109.792 6.28098 109.864 6.27277 109.932 6.25071C110 6.22865 110.063 6.1932 110.117 6.14649C110.171 6.09977 110.215 6.04276 110.246 5.97889C110.277 5.91502 110.294 5.84561 110.298 5.77484M113.98 9.55984C113.875 9.55433 113.771 9.57955 113.68 9.63233C113.589 9.68512 113.516 9.76314 113.47 9.85667C113.424 9.95019 113.407 10.0551 113.42 10.1583C113.434 10.2614 113.478 10.3583 113.547 10.4369C113.616 10.5154 113.707 10.5721 113.809 10.5999C113.91 10.6276 114.018 10.6253 114.118 10.5931C114.218 10.5609 114.306 10.5002 114.372 10.4187C114.437 10.3373 114.477 10.2385 114.486 10.1348C114.492 10.064 114.484 9.99267 114.462 9.92506C114.44 9.85746 114.404 9.79497 114.357 9.74132C114.309 9.68767 114.252 9.64396 114.187 9.61278C114.123 9.5816 114.052 9.5636 113.98 9.55984ZM97.9388 1.67484C97.8314 1.67385 97.726 1.70451 97.6362 1.76291C97.5464 1.82132 97.4763 1.90482 97.4347 2.00278C97.3931 2.10074 97.3819 2.20872 97.4027 2.31297C97.4234 2.41721 97.475 2.51299 97.551 2.58811C97.627 2.66324 97.724 2.71429 97.8294 2.73477C97.9349 2.75526 98.0441 2.74424 98.1433 2.70313C98.2424 2.66202 98.3269 2.59267 98.3859 2.50393C98.445 2.41519 98.4761 2.31107 98.4751 2.20484C98.4751 2.13524 98.4612 2.06632 98.4342 2.00201C98.4073 1.93771 98.3678 1.87928 98.318 1.83007C98.2682 1.78085 98.2091 1.74181 98.144 1.71518C98.079 1.68854 98.0093 1.67484 97.9388 1.67484ZM95.3285 3.12984C95.164 3.12885 95.0029 3.17622 94.8657 3.26595C94.7284 3.35567 94.6213 3.48368 94.5579 3.63372C94.4945 3.78376 94.4776 3.94904 94.5095 4.10857C94.5413 4.2681 94.6205 4.41467 94.7368 4.52965C94.8531 4.64463 95.0014 4.72283 95.1628 4.75431C95.3242 4.78579 95.4915 4.76913 95.6433 4.70644C95.7951 4.64376 95.9246 4.53789 96.0154 4.40228C96.1061 4.26666 96.1541 4.10744 96.1531 3.94484C96.1531 3.72868 96.0662 3.52139 95.9116 3.36854C95.7569 3.2157 95.5472 3.12984 95.3285 3.12984ZM90.0926 4.87484C89.9283 4.87385 89.7674 4.9211 89.6303 5.01059C89.4932 5.10009 89.3861 5.22781 89.3225 5.37756C89.2589 5.5273 89.2418 5.69233 89.2732 5.85172C89.3047 6.01112 89.3833 6.15769 89.4991 6.27287C89.6149 6.38805 89.7627 6.46665 89.9238 6.49869C90.0849 6.53074 90.252 6.5148 90.4039 6.45288C90.5557 6.39097 90.6856 6.28587 90.777 6.15092C90.8684 6.01596 90.9172 5.85723 90.9172 5.69484C90.9172 5.47822 90.8305 5.27041 90.676 5.11677C90.5215 4.96313 90.3118 4.87616 90.0926 4.87484ZM82.4285 17.2148C82.264 17.2138 82.1029 17.2612 81.9657 17.3509C81.8284 17.4407 81.7213 17.5687 81.6579 17.7187C81.5945 17.8688 81.5776 18.034 81.6095 18.1936C81.6413 18.3531 81.7205 18.4997 81.8368 18.6146C81.9531 18.7296 82.1014 18.8078 82.2628 18.8393C82.4242 18.8708 82.5915 18.8541 82.7433 18.7914C82.8951 18.7288 83.0246 18.6229 83.1153 18.4873C83.2061 18.3517 83.2541 18.1924 83.2531 18.0298C83.2531 17.8137 83.1662 17.6064 83.0116 17.4535C82.8569 17.3007 82.6472 17.2148 82.4285 17.2148ZM83.4402 12.3998C83.2759 12.3988 83.115 12.4461 82.9779 12.5356C82.8408 12.6251 82.7337 12.7528 82.6702 12.9026C82.6066 13.0523 82.5894 13.2173 82.6209 13.3767C82.6523 13.5361 82.7309 13.6827 82.8467 13.7979C82.9626 13.9131 83.1104 13.9916 83.2715 14.0237C83.4325 14.0557 83.5996 14.0398 83.7515 13.9779C83.9034 13.916 84.0333 13.8109 84.1246 13.6759C84.216 13.541 84.2648 13.3822 84.2648 13.2198C84.2655 13.1124 84.2447 13.0059 84.2035 12.9064C84.1624 12.807 84.1017 12.7165 84.0251 12.6403C83.9485 12.5641 83.8573 12.5036 83.757 12.4623C83.6566 12.4211 83.549 12.3998 83.4402 12.3998ZM86.0759 8.10484C85.9116 8.10385 85.7507 8.1511 85.6136 8.24059C85.4765 8.33009 85.3694 8.45781 85.3058 8.60756C85.2422 8.7573 85.2251 8.92233 85.2565 9.08172C85.2879 9.24112 85.3666 9.38769 85.4824 9.50287C85.5982 9.61805 85.746 9.69665 85.9071 9.72869C86.0682 9.76074 86.2353 9.7448 86.3871 9.68288C86.539 9.62097 86.6689 9.51587 86.7603 9.38092C86.8517 9.24596 86.9005 9.08723 86.9005 8.92484C86.9005 8.70822 86.8138 8.50041 86.6593 8.34677C86.5048 8.19313 86.295 8.10616 86.0759 8.10484ZM97.9388 30.9398C98.1482 30.9408 98.3531 30.8804 98.5276 30.7662C98.7021 30.6519 98.8384 30.4891 98.9192 30.2982C99 30.1074 99.0217 29.8971 98.9815 29.694C98.9413 29.491 98.841 29.3043 98.6933 29.1577C98.5456 29.011 98.3573 28.911 98.152 28.8703C97.9468 28.8296 97.7339 28.85 97.5405 28.9289C97.347 29.0079 97.1815 29.1418 97.0651 29.3137C96.9487 29.4857 96.8866 29.6879 96.8866 29.8948C96.8866 30.1711 96.9973 30.4362 97.1945 30.632C97.3917 30.8278 97.6593 30.9385 97.9388 30.9398ZM97.9388 7.19984C98.1482 7.20083 98.3531 7.14038 98.5276 7.02616C98.7021 6.91193 98.8384 6.74908 98.9192 6.55822C99 6.36736 99.0217 6.15709 98.9815 5.95405C98.9413 5.75101 98.841 5.56434 98.6933 5.4177C98.5456 5.27105 98.3573 5.17102 98.152 5.1303C97.9468 5.08957 97.7339 5.10997 97.5405 5.18891C97.347 5.26786 97.1815 5.40179 97.0651 5.57375C96.9487 5.7457 96.8866 5.94794 96.8866 6.15484C96.8866 6.43112 96.9973 6.69617 97.1945 6.892C97.3917 7.08783 97.6593 7.19851 97.9388 7.19984ZM93.74 7.81484C93.9493 7.81583 94.1542 7.75538 94.3288 7.64116C94.5033 7.52694 94.6396 7.36408 94.7204 7.17322C94.8012 6.98236 94.8229 6.77209 94.7827 6.56905C94.7424 6.36601 94.6421 6.17934 94.4945 6.0327C94.3468 5.88605 94.1584 5.78602 93.9532 5.7453C93.748 5.70457 93.5351 5.72497 93.3416 5.80391C93.1481 5.88286 92.9827 6.01679 92.8663 6.18875C92.7499 6.3607 92.6878 6.56294 92.6878 6.76984C92.6871 6.90683 92.7138 7.04261 92.7664 7.16936C92.819 7.29612 92.8964 7.41136 92.9942 7.50846C93.0919 7.60556 93.2082 7.68262 93.3362 7.7352C93.4642 7.78777 93.6014 7.81484 93.74 7.81484ZM90.1988 9.96984C90.4082 9.97083 90.6131 9.91038 90.7876 9.79616C90.9621 9.68194 91.0984 9.51908 91.1792 9.32822C91.26 9.13736 91.2817 8.92709 91.2415 8.72405C91.2013 8.52101 91.101 8.33434 90.9533 8.1877C90.8056 8.04105 90.6173 7.94102 90.412 7.9003C90.2068 7.85957 89.9939 7.87997 89.8005 7.95891C89.607 8.03786 89.4415 8.17179 89.3251 8.34375C89.2087 8.51571 89.1466 8.71794 89.1466 8.92484C89.1459 9.06183 89.1727 9.19761 89.2252 9.32436C89.2778 9.45112 89.3552 9.56636 89.453 9.66346C89.5508 9.76056 89.667 9.83762 89.795 9.89019C89.923 9.94277 90.0602 9.96984 90.1988 9.96984ZM87.4064 13.0598C87.6158 13.0648 87.8221 13.0081 87.9989 12.897C88.1757 12.7858 88.3151 12.6253 88.3994 12.4357C88.4837 12.2461 88.5092 12.0361 88.4725 11.8322C88.4358 11.6283 88.3387 11.4398 88.1934 11.2906C88.0481 11.1413 87.8612 11.0381 87.6565 10.9941C87.4518 10.95 87.2384 10.967 87.0435 11.043C86.8486 11.119 86.681 11.2506 86.5618 11.4209C86.4427 11.5913 86.3774 11.7928 86.3744 11.9998C86.3737 12.1368 86.4004 12.2726 86.453 12.3994C86.5056 12.5261 86.583 12.6414 86.6808 12.7385C86.7785 12.8356 86.8948 12.9126 87.0227 12.9652C87.1507 13.0178 87.288 13.0448 87.4266 13.0448M86.2782 16.9298C86.4878 16.9308 86.6929 16.8703 86.8675 16.7558C87.0422 16.6414 87.1785 16.4782 87.2591 16.2871C87.3398 16.0959 87.3611 15.8854 87.3205 15.6822C87.2799 15.479 87.1791 15.2924 87.0309 15.1459C86.8827 14.9995 86.6939 14.8998 86.4883 14.8597C86.2828 14.8195 86.0697 14.8406 85.8763 14.9204C85.6829 15.0001 85.5179 15.1348 85.4021 15.3074C85.2863 15.48 85.225 15.6827 85.226 15.8898C85.226 16.1657 85.3369 16.4302 85.5342 16.6252C85.7315 16.8203 85.9992 16.9298 86.2782 16.9298ZM94.2509 0.559836C94.3257 0.552232 94.3944 0.516103 94.4426 0.459139C94.4908 0.402176 94.5146 0.328874 94.5089 0.254836C94.5013 0.180976 94.4647 0.113001 94.4071 0.065375C94.3494 0.0177496 94.2753 -0.0057649 94.2004 -0.000163962C94.126 0.00741923 94.0577 0.0437292 94.0103 0.100857C93.963 0.157984 93.9404 0.231301 93.9474 0.304836C93.95 0.341441 93.9599 0.377175 93.9766 0.409931C93.9933 0.442687 94.0165 0.471805 94.0448 0.495568C94.0731 0.519331 94.1059 0.537259 94.1413 0.548296C94.1767 0.559334 94.214 0.563257 94.2509 0.559836ZM87.1989 3.08984C87.236 3.08733 87.2721 3.07752 87.3053 3.06099C87.3384 3.04446 87.3679 3.02154 87.3919 2.99358C87.416 2.96563 87.4341 2.9332 87.4453 2.89821C87.4564 2.86321 87.4604 2.82637 87.4569 2.78984C87.4505 2.7164 87.415 2.64844 87.3582 2.6007C87.3014 2.55296 87.2278 2.52929 87.1534 2.53484C87.1164 2.53734 87.0802 2.54715 87.0471 2.56368C87.0139 2.58021 86.9845 2.60313 86.9604 2.63109C86.9364 2.65905 86.9183 2.69147 86.9071 2.72647C86.8959 2.76146 86.892 2.7983 86.8954 2.83484C86.9019 2.90827 86.9374 2.97623 86.9942 3.02397C87.051 3.07171 87.1246 3.09538 87.1989 3.08984ZM117.744 24.9448C117.784 24.9458 117.823 24.9386 117.86 24.9235C117.897 24.9084 117.93 24.8859 117.957 24.8574C117.984 24.8288 118.005 24.7949 118.019 24.7579C118.032 24.7208 118.037 24.6815 118.034 24.6423C118.031 24.6031 118.019 24.5651 118 24.5306C117.981 24.4962 117.955 24.466 117.923 24.4422C117.892 24.4184 117.855 24.4014 117.816 24.3924C117.778 24.3834 117.738 24.3825 117.699 24.3898C117.662 24.3923 117.625 24.4022 117.592 24.4187C117.559 24.4352 117.53 24.4581 117.506 24.4861C117.482 24.514 117.463 24.5465 117.452 24.5815C117.441 24.6165 117.437 24.6533 117.441 24.6898C117.447 24.7633 117.483 24.8312 117.539 24.879C117.596 24.9267 117.67 24.9504 117.744 24.9448ZM114.365 29.5948C114.439 29.586 114.507 29.5496 114.555 29.4929C114.603 29.4362 114.627 29.3636 114.623 29.2898C114.618 29.2348 114.596 29.1825 114.561 29.1395C114.526 29.0966 114.478 29.0649 114.425 29.0485C114.372 29.0321 114.314 29.0316 114.261 29.0473C114.207 29.0629 114.159 29.0938 114.123 29.1363C114.088 29.1787 114.065 29.2306 114.059 29.2856C114.053 29.3405 114.064 29.396 114.089 29.4451C114.115 29.4941 114.155 29.5345 114.204 29.5612C114.253 29.5878 114.309 29.5995 114.365 29.5948ZM108.724 33.4998C108.761 33.4973 108.797 33.4875 108.831 33.471C108.864 33.4545 108.893 33.4315 108.917 33.4036C108.941 33.3756 108.959 33.3432 108.971 33.3082C108.982 33.2732 108.986 33.2364 108.982 33.1998C108.983 33.1607 108.975 33.122 108.959 33.0861C108.943 33.0502 108.92 33.0179 108.891 32.9914C108.862 32.9649 108.828 32.9447 108.79 32.9321C108.753 32.9195 108.713 32.9148 108.674 32.9184C108.634 32.9219 108.596 32.9335 108.561 32.9525C108.527 32.9715 108.497 32.9974 108.473 33.0287C108.449 33.0599 108.432 33.0957 108.423 33.1338C108.414 33.1719 108.413 33.2114 108.421 33.2498C108.424 33.286 108.434 33.3212 108.451 33.3534C108.468 33.3856 108.492 33.4141 108.52 33.4373C108.548 33.4606 108.581 33.4781 108.616 33.4888C108.651 33.4995 108.688 33.5033 108.724 33.4998ZM101.682 35.9998C101.757 35.9923 101.825 35.9559 101.872 35.8988C101.92 35.8417 101.942 35.7684 101.935 35.6948C101.933 35.6582 101.923 35.6225 101.906 35.5897C101.889 35.557 101.866 35.5279 101.838 35.5041C101.81 35.4803 101.777 35.4624 101.741 35.4514C101.706 35.4403 101.669 35.4364 101.632 35.4398C101.557 35.4465 101.487 35.4823 101.439 35.5395C101.39 35.5967 101.367 35.6706 101.374 35.7448C101.38 35.8191 101.417 35.8877 101.475 35.9355C101.533 35.9833 101.607 36.0065 101.682 35.9998ZM94.256 35.9998C94.3311 35.9932 94.4005 35.9573 94.4489 35.9001C94.4973 35.8429 94.5207 35.7691 94.514 35.6948C94.5073 35.6206 94.471 35.552 94.4131 35.5042C94.3553 35.4563 94.2806 35.4332 94.2054 35.4398C94.1311 35.4474 94.0628 35.4837 94.0154 35.5409C93.968 35.598 93.9454 35.6713 93.9525 35.7448C93.955 35.7814 93.9649 35.8172 93.9817 35.8499C93.9984 35.8827 94.0216 35.9118 94.0499 35.9356C94.0781 35.9593 94.111 35.9773 94.1464 35.9883C94.1818 35.9993 94.219 36.0033 94.256 35.9998ZM87.204 33.4648C87.241 33.4623 87.2772 33.4525 87.3103 33.436C87.3435 33.4195 87.3729 33.3965 87.397 33.3686C87.421 33.3406 87.4392 33.3082 87.4503 33.2732C87.4615 33.2382 87.4655 33.2014 87.462 33.1648C87.4556 33.0914 87.4201 33.0234 87.3632 32.9757C87.3064 32.928 87.2328 32.9043 87.1585 32.9098C87.1214 32.9123 87.0853 32.9222 87.0521 32.9387C87.019 32.9552 86.9895 32.9781 86.9655 33.0061C86.9415 33.034 86.9233 33.0665 86.9122 33.1015C86.901 33.1365 86.897 33.1733 86.9005 33.2098C86.9069 33.2833 86.9424 33.3512 86.9992 33.399C87.0561 33.4467 87.1296 33.4704 87.204 33.4648ZM81.6393 29.5398C81.6953 29.5357 81.7488 29.5151 81.793 29.4808C81.8371 29.4466 81.87 29.4001 81.8874 29.3473C81.9048 29.2945 81.9059 29.2378 81.8906 29.1844C81.8753 29.131 81.8443 29.0832 81.8015 29.0473C81.7587 29.0113 81.706 28.9888 81.6502 28.9824C81.5944 28.9761 81.538 28.9864 81.4881 29.0118C81.4382 29.0373 81.397 29.0768 81.3699 29.1254C81.3428 29.174 81.3309 29.2295 81.3358 29.2848C81.3422 29.3583 81.3777 29.4262 81.4345 29.474C81.4914 29.5217 81.5649 29.5454 81.6393 29.5398ZM78.1588 24.9448C78.1986 24.9458 78.2381 24.9386 78.2748 24.9235C78.3115 24.9084 78.3446 24.8859 78.3719 24.8574C78.3992 24.8288 78.4201 24.7949 78.4333 24.7579C78.4465 24.7208 78.4517 24.6815 78.4485 24.6423C78.4453 24.6031 78.4338 24.5651 78.4147 24.5306C78.3956 24.4962 78.3694 24.466 78.3378 24.4422C78.3062 24.4184 78.2699 24.4014 78.2312 24.3924C78.1925 24.3834 78.1524 24.3825 78.1133 24.3898C78.0446 24.4027 77.9832 24.4402 77.9408 24.4952C77.8984 24.5502 77.8781 24.6187 77.8837 24.6876C77.8894 24.7564 77.9206 24.8208 77.9714 24.8683C78.0222 24.9158 78.0889 24.9431 78.1588 24.9448ZM81.6595 6.99984C81.7155 6.99566 81.769 6.97513 81.8132 6.94084C81.8574 6.90656 81.8902 6.86007 81.9076 6.80728C81.925 6.75449 81.9261 6.69778 81.9108 6.64437C81.8955 6.59095 81.8645 6.54324 81.8217 6.50729C81.7789 6.47133 81.7263 6.44876 81.6705 6.44245C81.6147 6.43613 81.5582 6.44635 81.5083 6.47181C81.4584 6.49727 81.4173 6.53682 81.3902 6.58543C81.363 6.63405 81.3512 6.68953 81.356 6.74484C81.3625 6.81827 81.3979 6.88623 81.4548 6.93397C81.5116 6.98171 81.5852 7.00538 81.6595 6.99984ZM91.5192 3.59484C91.6241 3.58585 91.724 3.54655 91.8064 3.48182C91.8889 3.41709 91.9502 3.32981 91.9828 3.23085C92.0154 3.13189 92.0178 3.02564 91.9897 2.92535C91.9616 2.82505 91.9042 2.73516 91.8248 2.66687C91.7453 2.59859 91.6473 2.55493 91.5429 2.54135C91.4385 2.52776 91.3324 2.54486 91.2377 2.5905C91.1431 2.63613 91.0642 2.7083 91.0108 2.79798C90.9574 2.88767 90.9318 2.99091 90.9374 3.09484C90.9412 3.16583 90.9594 3.23535 90.991 3.29924C91.0225 3.36313 91.0668 3.4201 91.121 3.46675C91.1753 3.51341 91.2385 3.54879 91.3069 3.57079C91.3753 3.59279 91.4475 3.60097 91.5192 3.59484ZM86.1366 6.25484C86.2733 6.2369 86.3977 6.16762 86.484 6.0614C86.5704 5.95518 86.612 5.82017 86.6003 5.6844C86.5886 5.54864 86.5244 5.42255 86.4211 5.33231C86.3178 5.24208 86.1833 5.19464 86.0455 5.19984C85.973 5.20257 85.9019 5.21981 85.8363 5.25052C85.7708 5.28122 85.7122 5.32475 85.6642 5.37848C85.6161 5.4322 85.5796 5.49499 85.5569 5.56306C85.5341 5.63113 85.5255 5.70306 85.5317 5.7745C85.5379 5.84594 85.5586 5.91539 85.5927 5.97867C85.6268 6.04194 85.6736 6.09772 85.7301 6.14262C85.7867 6.18752 85.8519 6.22062 85.9217 6.23991C85.9916 6.2592 86.0647 6.26428 86.1366 6.25484ZM81.3914 10.1348C81.3907 10.2068 81.4057 10.2781 81.4354 10.3438C81.4652 10.4096 81.5089 10.4682 81.5637 10.5156C81.6184 10.5631 81.6829 10.5983 81.7527 10.6189C81.8225 10.6395 81.896 10.6449 81.9681 10.6348C82.0733 10.6268 82.1738 10.5883 82.257 10.5241C82.3401 10.4599 82.4023 10.3729 82.4356 10.2739C82.469 10.1749 82.4721 10.0685 82.4445 9.9678C82.4169 9.86714 82.3598 9.77675 82.2805 9.70797C82.2012 9.6392 82.1031 9.59508 81.9985 9.58115C81.8939 9.56723 81.7875 9.5841 81.6926 9.62968C81.5977 9.67525 81.5184 9.74749 81.4649 9.83735C81.4113 9.92721 81.3858 10.0307 81.3914 10.1348ZM116.12 20.2048C115.978 20.2168 115.846 20.2841 115.754 20.3919C115.662 20.4997 115.617 20.6393 115.63 20.7798C115.642 20.9204 115.71 21.0505 115.819 21.1414C115.928 21.2324 116.069 21.2768 116.211 21.2648C116.282 21.2589 116.35 21.2394 116.413 21.2073C116.476 21.1752 116.532 21.1312 116.577 21.0778C116.623 21.0244 116.657 20.9626 116.679 20.8961C116.7 20.8295 116.708 20.7594 116.702 20.6898C116.696 20.6202 116.676 20.5525 116.644 20.4904C116.611 20.4284 116.567 20.3733 116.513 20.3282C116.459 20.2832 116.396 20.2491 116.329 20.228C116.262 20.2068 116.191 20.1989 116.12 20.2048ZM114.011 25.3498C113.906 25.3588 113.806 25.3981 113.723 25.4629C113.641 25.5276 113.58 25.6149 113.547 25.7138C113.514 25.8128 113.512 25.919 113.54 26.0193C113.568 26.1196 113.626 26.2095 113.705 26.2778C113.785 26.3461 113.883 26.3897 113.987 26.4033C114.091 26.4169 114.198 26.3998 114.292 26.3542C114.387 26.3085 114.466 26.2364 114.519 26.1467C114.573 26.057 114.598 25.9538 114.592 25.8498C114.589 25.7788 114.57 25.7093 114.539 25.6454C114.507 25.5815 114.463 25.5246 114.409 25.4779C114.355 25.4313 114.291 25.3959 114.223 25.3739C114.155 25.3519 114.082 25.3437 114.011 25.3498ZM109.847 29.7248C109.742 29.7329 109.642 29.7714 109.558 29.8356C109.475 29.8998 109.413 29.9868 109.38 30.0858C109.346 30.1847 109.343 30.2912 109.371 30.3919C109.399 30.4925 109.456 30.5829 109.535 30.6517C109.614 30.7205 109.712 30.7646 109.817 30.7785C109.922 30.7924 110.028 30.7756 110.123 30.73C110.218 30.6844 110.297 30.6122 110.351 30.5223C110.404 30.4325 110.43 30.329 110.424 30.2248C110.425 30.1528 110.41 30.0816 110.38 30.0158C110.35 29.9501 110.307 29.8915 110.252 29.844C110.197 29.7966 110.133 29.7613 110.063 29.7408C109.993 29.7202 109.919 29.7148 109.847 29.7248ZM104.364 32.3898C104.292 32.3936 104.221 32.4116 104.157 32.4428C104.092 32.474 104.034 32.5177 103.987 32.5713C103.94 32.625 103.904 32.6875 103.882 32.7551C103.86 32.8227 103.851 32.894 103.858 32.9648C103.86 33.0365 103.878 33.1068 103.909 33.1716C103.94 33.2364 103.984 33.2943 104.038 33.3418C104.093 33.3892 104.156 33.4253 104.225 33.4478C104.294 33.4703 104.367 33.4788 104.439 33.4727C104.511 33.4666 104.582 33.4461 104.646 33.4124C104.71 33.3787 104.766 33.3325 104.812 33.2766C104.857 33.2207 104.89 33.1563 104.91 33.0872C104.929 33.0182 104.935 32.9459 104.925 32.8748C104.922 32.8041 104.904 32.7346 104.873 32.6708C104.842 32.6069 104.799 32.5499 104.745 32.5032C104.691 32.4565 104.628 32.421 104.56 32.399C104.492 32.3769 104.42 32.3687 104.348 32.3748M97.8781 33.2498C97.8056 33.2526 97.7345 33.2698 97.6689 33.3005C97.6034 33.3312 97.5448 33.3748 97.4968 33.4285C97.4487 33.4822 97.4122 33.545 97.3895 33.6131C97.3667 33.6811 97.3581 33.7531 97.3643 33.8245C97.3704 33.8959 97.3912 33.9654 97.4253 34.0287C97.4594 34.0919 97.5062 34.1477 97.5627 34.1926C97.6193 34.2375 97.6844 34.2706 97.7543 34.2899C97.8242 34.3092 97.8973 34.3143 97.9692 34.3048C98.1058 34.2869 98.2303 34.2176 98.3166 34.1114C98.403 34.0052 98.4446 33.8702 98.4329 33.7344C98.4212 33.5986 98.357 33.4725 98.2537 33.3823C98.1504 33.2921 98.0159 33.2446 97.8781 33.2498ZM91.6659 32.5498C91.5237 32.5618 91.3921 32.6291 91.3 32.7369C91.208 32.8447 91.1631 32.9843 91.1752 33.1248C91.1873 33.2654 91.2553 33.3955 91.3644 33.4864C91.4735 33.5774 91.6147 33.6218 91.757 33.6098C91.8992 33.5979 92.0308 33.5306 92.1228 33.4228C92.2148 33.3149 92.2597 33.1754 92.2477 33.0348C92.2356 32.8943 92.1675 32.7642 92.0584 32.6732C91.9493 32.5823 91.8081 32.5379 91.6659 32.5498ZM86.0455 29.7448C85.973 29.7476 85.9019 29.7648 85.8363 29.7955C85.7708 29.8262 85.7122 29.8698 85.6642 29.9235C85.6161 29.9772 85.5796 30.04 85.5569 30.1081C85.5341 30.1761 85.5255 30.2481 85.5317 30.3195C85.5379 30.3909 85.5586 30.4604 85.5927 30.5237C85.6268 30.5869 85.6736 30.6427 85.7301 30.6876C85.7867 30.7325 85.8519 30.7656 85.9217 30.7849C85.9916 30.8042 86.0647 30.8093 86.1366 30.7998C86.2733 30.7819 86.3977 30.7126 86.484 30.6064C86.5704 30.5002 86.612 30.3652 86.6003 30.2294C86.5886 30.0936 86.5244 29.9675 86.4211 29.8773C86.3178 29.7871 86.1833 29.7396 86.0455 29.7448ZM81.872 25.3648C81.7671 25.3738 81.6672 25.4131 81.5848 25.4779C81.5023 25.5426 81.441 25.6299 81.4084 25.7288C81.3758 25.8278 81.3734 25.934 81.4015 26.0343C81.4296 26.1346 81.487 26.2245 81.5664 26.2928C81.6459 26.3611 81.7439 26.4047 81.8483 26.4183C81.9527 26.4319 82.0588 26.4148 82.1534 26.3692C82.2481 26.3235 82.327 26.2514 82.3804 26.1617C82.4338 26.072 82.4593 25.9688 82.4538 25.8648C82.45 25.7938 82.4317 25.7243 82.4002 25.6604C82.3687 25.5965 82.3244 25.5396 82.2701 25.4929C82.2159 25.4463 82.1526 25.4109 82.0843 25.3889C82.0158 25.3669 81.9437 25.3587 81.872 25.3648ZM79.545 15.2098C79.44 15.2188 79.3401 15.2581 79.2577 15.3229C79.1752 15.3876 79.1139 15.4749 79.0813 15.5738C79.0487 15.6728 79.0463 15.779 79.0744 15.8793C79.1025 15.9796 79.1599 16.0695 79.2394 16.1378C79.3188 16.2061 79.4169 16.2497 79.5212 16.2633C79.6256 16.2769 79.7318 16.2598 79.8264 16.2142C79.921 16.1685 80 16.0964 80.0534 16.0067C80.1068 15.917 80.1323 15.8138 80.1267 15.7098C80.1229 15.6388 80.1047 15.5693 80.0732 15.5054C80.0416 15.4415 79.9974 15.3846 79.9431 15.3379C79.8888 15.2913 79.8256 15.2559 79.7572 15.2339C79.6888 15.2119 79.6166 15.2037 79.545 15.2098ZM94.7922 29.2098C94.7922 29.0041 94.7305 28.8031 94.6149 28.632C94.4993 28.461 94.3349 28.3277 94.1427 28.249C93.9504 28.1703 93.7388 28.1497 93.5347 28.1898C93.3306 28.2299 93.1431 28.329 92.996 28.4744C92.8488 28.6199 92.7486 28.8052 92.708 29.0069C92.6674 29.2087 92.6882 29.4178 92.7679 29.6078C92.8475 29.7979 92.9824 29.9603 93.1554 30.0746C93.3285 30.1888 93.5319 30.2498 93.74 30.2498C93.8782 30.2498 94.015 30.2229 94.1427 30.1707C94.2703 30.1184 94.3863 30.0418 94.484 29.9452C94.5818 29.8487 94.6593 29.734 94.7121 29.6078C94.765 29.4816 94.7922 29.3464 94.7922 29.2098ZM102.057 28.1648C101.847 28.1638 101.642 28.2243 101.468 28.3385C101.293 28.4527 101.157 28.6156 101.076 28.8065C100.995 28.9973 100.974 29.2076 101.014 29.4106C101.054 29.6137 101.155 29.8003 101.302 29.947C101.45 30.0936 101.638 30.1936 101.844 30.2344C102.049 30.2751 102.262 30.2547 102.455 30.1758C102.649 30.0968 102.814 29.9629 102.93 29.7909C103.047 29.619 103.109 29.4167 103.109 29.2098C103.11 29.0728 103.083 28.9371 103.03 28.8103C102.978 28.6836 102.9 28.5683 102.803 28.4712C102.705 28.3741 102.589 28.2971 102.461 28.2445C102.333 28.1919 102.195 28.1648 102.057 28.1648ZM105.664 26.0948C105.456 26.0988 105.255 26.1629 105.084 26.2793C104.913 26.3956 104.781 26.559 104.703 26.7491C104.626 26.9392 104.607 27.1476 104.648 27.3485C104.69 27.5493 104.79 27.7336 104.936 27.8786C105.083 28.0235 105.27 28.1226 105.473 28.1636C105.676 28.2045 105.887 28.1855 106.079 28.1089C106.272 28.0323 106.437 27.9015 106.555 27.7327C106.672 27.564 106.737 27.3648 106.741 27.1598C106.741 26.8835 106.63 26.6185 106.433 26.4227C106.236 26.2268 105.968 26.1162 105.689 26.1148M109.488 23.9998C109.487 23.7944 109.425 23.5938 109.308 23.4234C109.192 23.253 109.027 23.1205 108.835 23.0426C108.643 22.9646 108.431 22.9447 108.228 22.9854C108.024 23.0261 107.837 23.1256 107.69 23.2712C107.543 23.4169 107.444 23.6022 107.404 23.8038C107.363 24.0054 107.384 24.2142 107.464 24.404C107.544 24.5937 107.679 24.7558 107.852 24.8699C108.025 24.984 108.228 25.0448 108.436 25.0448C108.575 25.0448 108.712 25.0178 108.84 24.9652C108.968 24.9126 109.084 24.8356 109.182 24.7385C109.28 24.6414 109.357 24.5261 109.409 24.3994C109.462 24.2726 109.489 24.1368 109.488 23.9998ZM90.2191 26.0498C90.0097 26.0488 89.8048 26.1093 89.6303 26.2235C89.4558 26.3377 89.3195 26.5006 89.2387 26.6915C89.1579 26.8823 89.1362 27.0926 89.1764 27.2956C89.2166 27.4987 89.3169 27.6853 89.4646 27.832C89.6123 27.9786 89.8006 28.0786 90.0059 28.1194C90.2111 28.1601 90.424 28.1397 90.6174 28.0608C90.8109 27.9818 90.9763 27.8479 91.0928 27.6759C91.2092 27.504 91.2713 27.3017 91.2713 27.0948C91.272 26.9578 91.2452 26.8221 91.1927 26.6953C91.1401 26.5686 91.0627 26.4533 90.9649 26.3562C90.8671 26.2591 90.7509 26.1821 90.6229 26.1295C90.4949 26.0769 90.3577 26.0498 90.2191 26.0498ZM87.4266 22.9598C87.2171 22.9588 87.0119 23.0194 86.8373 23.1339C86.6627 23.2483 86.5264 23.4115 86.4457 23.6026C86.3651 23.7938 86.3437 24.0043 86.3843 24.2075C86.425 24.4106 86.5258 24.5973 86.6739 24.7438C86.8221 24.8902 87.0109 24.9898 87.2165 25.03C87.4221 25.0701 87.6351 25.049 87.8285 24.9693C88.0219 24.8896 88.187 24.7549 88.3027 24.5823C88.4185 24.4097 88.4798 24.2069 88.4788 23.9998C88.4788 23.724 88.368 23.4595 88.1706 23.2644C87.9733 23.0694 87.7057 22.9598 87.4266 22.9598ZM129.668 13.9998H136.189V22.5998H138.48V13.9998H144.429L144.981 12.4998H130.224L129.668 13.9998ZM76.798 12.4998H74.5064V22.5998H84.9579L85.5194 21.0998H76.798V12.4998ZM98.1007 12.4998L103.625 22.4998H106.078L100.554 12.5248L98.1007 12.4998ZM89.7537 22.4998H92.2072L97.7264 12.5248H95.2728L89.7537 22.4998ZM122.702 19.9998L113.09 12.5398H110.788V22.4998H113.08V14.9998L122.692 22.4998H124.978V12.5248H122.692L122.702 19.9998ZM169.01 16.7548H161.989C161.812 16.7708 161.634 16.7502 161.465 16.6945C161.297 16.6387 161.142 16.549 161.011 16.4309C160.88 16.3129 160.775 16.1692 160.703 16.0089C160.631 15.8486 160.593 15.6753 160.592 15.4998V15.2198C160.595 15.0488 160.634 14.8801 160.705 14.7244C160.777 14.5687 160.88 14.4292 161.009 14.3147C161.138 14.2002 161.289 14.1132 161.453 14.059C161.617 14.0048 161.791 13.9847 161.963 13.9998H171.444L172 12.4998H161.296C159.368 12.4998 158.387 13.7848 158.361 15.0598V15.7198C158.361 17.0148 159.373 18.3548 161.351 18.3548H168.373C168.548 18.339 168.725 18.3591 168.892 18.414C169.06 18.4688 169.214 18.5572 169.345 18.6736C169.476 18.79 169.581 18.932 169.654 19.0905C169.727 19.249 169.766 19.4207 169.769 19.5948V19.8748C169.766 20.0455 169.727 20.2136 169.655 20.3687C169.583 20.5239 169.479 20.6627 169.351 20.7767C169.222 20.8906 169.071 20.9772 168.907 21.0311C168.743 21.0849 168.57 21.1049 168.398 21.0898H158.918L158.361 22.5898H169.066C170.993 22.5898 171.975 21.3048 172 20.0298V19.3698C172 18.0798 170.988 16.7398 169.01 16.7398M10.6691 16.7398H3.62718C3.45169 16.7557 3.27479 16.7356 3.10754 16.6807C2.94029 16.6258 2.78631 16.5374 2.65523 16.421C2.52416 16.3046 2.41882 16.1627 2.34581 16.0042C2.2728 15.8457 2.23369 15.674 2.23094 15.4998V15.2198C2.23374 15.0488 2.27218 14.8801 2.34386 14.7244C2.41554 14.5687 2.51893 14.4292 2.64757 14.3147C2.77621 14.2002 2.92735 14.1132 3.09154 14.059C3.25573 14.0048 3.42946 13.9847 3.60188 13.9998H13.0821L13.6386 12.4998H2.93412C1.01176 12.5448 0.0252941 13.8098 0 15.0848V15.7448C0 17.0398 1.01176 18.3798 2.98976 18.3798H10.0114C10.1869 18.364 10.3638 18.3841 10.531 18.439C10.6983 18.4938 10.8523 18.5822 10.9834 18.6986C11.1144 18.815 11.2198 18.957 11.2928 19.1155C11.3658 19.274 11.4049 19.4457 11.4076 19.6198V19.8998C11.4042 20.0705 11.3652 20.2386 11.2932 20.3937C11.2213 20.5489 11.1178 20.6877 10.9892 20.8017C10.8606 20.9156 10.7097 21.0022 10.5459 21.0561C10.382 21.1099 10.2087 21.1299 10.0367 21.1148H0.556471L0 22.6148H10.7045C12.6319 22.6148 13.6133 21.3298 13.6386 20.0548V19.3698C13.6386 18.0798 12.6268 16.7398 10.6488 16.7398M149.822 22.4998H152.114V12.5248H149.822V22.4998ZM18.6316 13.9998H25.1474V22.5998H27.4391V13.9998H33.3882L33.9447 12.4998H19.1831L18.6316 13.9998ZM49.9964 13.9998L50.5528 12.4998H38.9529V22.5998H50.0115L50.568 21.0998H41.2598V18.2648H47.7705L48.3219 16.7948H41.2395V13.9998H49.9964ZM59.7346 21.1098H68.456L67.8945 22.6098H57.4429V12.5248H59.7346V21.1098Z" fill="#2F3C82"/>
</g>
<defs>
<clipPath id="clip0_2_451">
<rect width="172" height="36" fill="white"/>
</clipPath>
</defs>
</svg>
